%FSTAX25Y25*%
%MOIN*%
%SFA1B1*%

%IPPOS*%
%ADD17C,0.093000*%
%ADD18C,0.043307*%
%ADD19R,0.043307X0.043307*%
%ADD20C,0.061149*%
%ADD21O,0.140000X0.074000*%
%ADD22C,0.078740*%
%ADD23R,0.078740X0.078740*%
%ADD24C,0.063118*%
%ADD25C,0.070992*%
%ADD26C,0.061149*%
%ADD27R,0.061149X0.061149*%
%ADD28R,0.055244X0.055244*%
%ADD29C,0.055244*%
%ADD30R,0.090677X0.090677*%
%ADD31C,0.090677*%
%ADD32R,0.067055X0.067055*%
%ADD33C,0.067055*%
%LNhigh_fre_amp-1*%
%LPD*%
G54D17*
X00345Y02791D03*
X04506Y00369D03*
X00345D03*
X04506Y02791D03*
G54D18*
X00975Y02165D03*
X00925Y02115D03*
G54D19*
X01025Y02115D03*
G54D20*
X0250373Y0177D03*
X037493D03*
G54D21*
X0181373Y0167D03*
Y0177D03*
Y0187D03*
X030593D03*
Y0177D03*
Y0167D03*
G54D22*
X03115Y023546D03*
Y02455D03*
X01825Y023546D03*
Y02455D03*
G54D23*
X03115Y0255539D03*
X01825D03*
G54D24*
X0281135Y0209405D03*
Y0159405D03*
X003937Y0159643D03*
X006937D03*
X0084385D03*
X0114385D03*
X01594D03*
X01294D03*
X04065Y0097025D03*
X04365D03*
X0407388Y0261661D03*
Y0211661D03*
Y015D03*
Y02D03*
X0281135Y0219D03*
Y0269D03*
X003937Y0210533D03*
X006937D03*
X0084385Y0261423D03*
X0114385D03*
X003937D03*
X006937D03*
X01294D03*
X01594D03*
G54D25*
X0412043Y01224D03*
Y01124D03*
G54D26*
X0431388Y0246503D03*
Y0165157D03*
X01444Y0198957D03*
G54D27*
X0431388Y0226818D03*
Y0184842D03*
X01444Y0218642D03*
G54D28*
X0139938Y0114173D03*
X0227876D03*
X0315814D03*
X0052D03*
G54D29*
X0169938Y0114173D03*
X0257876D03*
X0345814D03*
X0082D03*
G54D30*
X0073542Y0058359D03*
X0200983D03*
G54D31*
X0053857Y0058359D03*
X0181298D03*
G54D32*
X031404Y0057375D03*
G54D33*
X030404Y0057375D03*
M02*