%FSTAX25Y25*%
%MOIN*%
%SFA1B1*%

%IPPOS*%
%ADD10C,0.005905*%
%ADD11C,0.005000*%
%ADD12C,0.009843*%
%ADD13C,0.007874*%
%ADD14C,0.002000*%
%ADD15C,0.015000*%
%ADD16C,0.010000*%
%LNhigh_fre_amp-1*%
%LPD*%
G36*
X0201373Y01845D02*
X0190367D01*
Y01855*
X0187859*
Y0188508*
X0190367*
Y0189504*
X0201373*
Y01845*
G37*
G36*
Y01745D02*
X0190344D01*
Y01755*
X018786*
Y0178501*
X0190344*
Y0179504*
X0201373*
Y01745*
G37*
G36*
Y01645D02*
X0190369D01*
Y01655*
X0187854*
Y016849*
X0190369*
Y0169498*
X0201373*
Y01645*
G37*
G36*
X032593Y01845D02*
X0314924D01*
Y01855*
X0312416*
Y0188508*
X0314924*
Y0189504*
X032593*
Y01845*
G37*
G36*
Y01745D02*
X0314901D01*
Y01755*
X0312417*
Y0178501*
X0314901*
Y0179504*
X032593*
Y01745*
G37*
G36*
Y01645D02*
X0314926D01*
Y01655*
X0312411*
Y016849*
X0314926*
Y0169498*
X032593*
Y01645*
G37*
G36*
X0439655Y0051981D02*
X0395556D01*
Y00668*
X0439655*
Y0051981*
G37*
%LNhigh_fre_amp-2*%
%LPC*%
G36*
X0437656Y00648D02*
X0436764D01*
Y0057955*
X0437656*
Y00648*
G37*
G36*
X0436319D02*
X0435874D01*
Y0057955*
X0436319*
Y00648*
G37*
G36*
X0435428D02*
X0434091D01*
Y0057955*
X0435428*
Y00648*
G37*
G36*
X0432755D02*
X0431864D01*
Y0057955*
X0432755*
Y00648*
G37*
G36*
X0431418D02*
X0430972D01*
Y0057955*
X0431418*
Y00648*
G37*
G36*
X0429636D02*
X0428299D01*
Y0057955*
X0429636*
Y00648*
G37*
G36*
X0427853D02*
X0426962D01*
Y0057955*
X0427853*
Y00648*
G37*
G36*
X0425626D02*
X042518D01*
Y0057955*
X0425626*
Y00648*
G37*
G36*
X0424735D02*
X0423398D01*
Y0057955*
X0424735*
Y00648*
G37*
G36*
X0422953D02*
X0422062D01*
Y0057955*
X0422953*
Y00648*
G37*
G36*
X0420725D02*
X0420279D01*
Y0057955*
X0420725*
Y00648*
G37*
G36*
X0419834D02*
X0418943D01*
Y0057955*
X0419834*
Y00648*
G37*
G36*
X0417606D02*
X0417161D01*
Y0057955*
X0417606*
Y00648*
G37*
G36*
X0416715D02*
X0416269D01*
Y0057955*
X0416715*
Y00648*
G37*
G36*
X0414933D02*
X0413596D01*
Y0057955*
X0414933*
Y00648*
G37*
G36*
X0413151D02*
X0412259D01*
Y0057955*
X0413151*
Y00648*
G37*
G36*
X0410923D02*
X0410032D01*
Y0057955*
X0410923*
Y00648*
G37*
G36*
X0408695D02*
X040825D01*
Y0057955*
X0408695*
Y00648*
G37*
G36*
X0407804D02*
X0407358D01*
Y0057955*
X0407804*
Y00648*
G37*
G36*
X0406022D02*
X0405131D01*
Y0057955*
X0406022*
Y00648*
G37*
G36*
X0404685D02*
X0403348D01*
Y0057955*
X0404685*
Y00648*
G37*
G36*
X0402903D02*
X0402457D01*
Y0057955*
X0402903*
Y00648*
G37*
G36*
X0401566D02*
X0401121D01*
Y0057955*
X0401566*
Y00648*
G37*
G36*
X0399338D02*
X0398893D01*
Y0057955*
X0399338*
Y00648*
G37*
G36*
X0398447D02*
X0397556D01*
Y0057955*
X0398447*
Y00648*
G37*
G36*
X0433665Y0057888D02*
X0433593D01*
X0433448Y0057883*
X0433321Y0057866*
X0433199Y0057844*
X0433093Y0057822*
X043301Y00578*
X0432971Y0057788*
X0432944Y0057777*
X0432921Y0057766*
X0432905Y0057761*
X0432894Y0057755*
X0432888*
X0432777Y00577*
X0432677Y0057639*
X0432594Y0057572*
X0432527Y0057511*
X0432477Y0057456*
X0432438Y0057411*
X0432411Y0057378*
X0432405Y0057372*
Y0057367*
X043235Y0057272*
X0432311Y0057178*
X0432283Y0057084*
X0432266Y0057001*
X0432255Y0056929*
X0432244Y0056873*
Y0056851*
Y0056834*
Y0056829*
Y0056823*
X043225Y0056729*
X0432266Y005664*
X0432288Y0056557*
X0432311Y0056485*
X0432333Y0056429*
X0432355Y0056385*
X0432372Y0056357*
X0432377Y0056346*
X0432433Y0056268*
X04325Y0056196*
X0432566Y0056135*
X0432633Y0056085*
X0432688Y005604*
X0432738Y0056013*
X0432772Y005599*
X0432777Y0055985*
X0432783*
X0432827Y0055963*
X0432877Y005594*
X0432988Y0055902*
X0433116Y0055863*
X0433238Y0055824*
X0433349Y0055791*
X0433399Y0055779*
X0433443Y0055768*
X0433476Y0055757*
X0433504Y0055752*
X0433521Y0055746*
X0433526*
X043362Y0055724*
X0433709Y0055702*
X0433787Y005568*
X0433854Y0055663*
X043392Y0055646*
X0433976Y005563*
X0434026Y0055619*
X0434064Y0055602*
X0434103Y0055591*
X0434131Y0055585*
X0434175Y0055569*
X0434203Y0055563*
X0434209Y0055557*
X0434292Y0055524*
X0434364Y0055485*
X0434425Y0055447*
X043447Y0055413*
X0434509Y005538*
X0434531Y0055358*
X0434548Y0055341*
X0434553Y0055336*
X0434592Y0055286*
X043462Y005523*
X0434636Y0055175*
X0434653Y005513*
X0434659Y0055086*
X0434664Y0055053*
Y0055025*
Y0055019*
X0434659Y0054953*
X0434647Y0054892*
X0434631Y0054836*
X0434609Y0054792*
X0434586Y0054747*
X043457Y005472*
X0434559Y0054698*
X0434553Y0054692*
X0434509Y0054636*
X0434453Y0054592*
X0434398Y0054553*
X0434348Y0054514*
X0434298Y0054492*
X0434259Y005447*
X0434231Y0054459*
X043422Y0054453*
X0434137Y0054425*
X0434048Y0054403*
X0433959Y0054392*
X0433881Y0054381*
X0433815Y0054375*
X0433759Y005437*
X0433709*
X0433587Y0054375*
X0433476Y0054387*
X0433376Y0054403*
X0433288Y0054425*
X0433215Y0054448*
X043316Y0054464*
X0433143Y005447*
X0433127Y0054475*
X0433121Y0054481*
X0433116*
X0433027Y0054525*
X0432944Y0054575*
X0432883Y0054625*
X0432827Y0054675*
X0432783Y0054714*
X0432755Y0054753*
X0432738Y0054775*
X0432733Y0054781*
X0432694Y0054853*
X0432655Y0054931*
X0432633Y0055014*
X0432611Y0055086*
X0432594Y0055158*
X0432583Y0055208*
Y005523*
X0432577Y0055247*
Y0055252*
Y0055258*
X04321Y0055214*
X0432111Y0055075*
X0432133Y0054942*
X0432166Y0054825*
X0432205Y005472*
X0432244Y0054636*
X0432261Y0054603*
X0432272Y0054575*
X0432288Y0054553*
X0432294Y0054537*
X0432305Y0054525*
Y005452*
X0432388Y0054414*
X0432477Y005432*
X0432572Y0054242*
X0432661Y0054175*
X0432738Y0054125*
X0432805Y0054092*
X0432827Y0054081*
X0432844Y005407*
X0432855Y0054064*
X043286*
X0432999Y0054015*
X0433143Y0053976*
X0433288Y0053954*
X0433426Y0053931*
X0433493Y0053926*
X0433548Y005392*
X0433598*
X0433643Y0053915*
X0433731*
X0433881Y005392*
X043402Y0053937*
X0434148Y0053965*
X0434253Y0053992*
X0434342Y0054015*
X0434381Y0054031*
X0434414Y0054042*
X0434437Y0054053*
X0434453Y0054059*
X0434464Y0054064*
X043447*
X0434586Y0054125*
X0434686Y0054192*
X0434775Y0054264*
X0434847Y0054331*
X0434903Y0054387*
X0434942Y0054437*
X0434969Y005447*
X0434975Y0054475*
Y0054481*
X0435036Y0054587*
X043508Y0054686*
X0435108Y0054781*
X043513Y0054869*
X0435141Y0054947*
X0435152Y0055008*
Y005503*
Y0055047*
Y0055053*
Y0055058*
X0435147Y0055169*
X043513Y0055275*
X0435102Y0055369*
X0435075Y0055447*
X0435041Y0055513*
X0435019Y0055563*
X0434997Y0055591*
X0434991Y0055602*
X0434925Y0055685*
X0434847Y0055763*
X0434764Y0055829*
X0434681Y005589*
X0434609Y0055935*
X0434548Y0055968*
X0434525Y0055979*
X0434509Y005599*
X0434498Y0055996*
X0434492*
X0434448Y0056018*
X0434392Y0056035*
X0434331Y0056057*
X0434264Y0056079*
X0434125Y0056118*
X0433981Y0056157*
X0433915Y0056174*
X0433854Y005619*
X0433792Y0056207*
X0433743Y0056218*
X0433704Y0056229*
X043367Y0056235*
X0433648Y005624*
X0433643*
X0433532Y0056268*
X0433432Y005629*
X0433343Y0056318*
X0433265Y005634*
X0433193Y0056368*
X0433132Y005639*
X0433077Y0056412*
X0433027Y0056429*
X0432988Y0056451*
X0432955Y0056468*
X0432932Y0056479*
X043291Y0056496*
X0432883Y0056512*
X0432877Y0056518*
X0432827Y0056573*
X0432794Y0056629*
X0432766Y0056684*
X0432749Y005674*
X0432738Y0056784*
X0432733Y0056823*
Y0056845*
Y0056856*
X0432744Y0056945*
X0432766Y0057023*
X0432799Y0057089*
X0432838Y005715*
X0432871Y0057195*
X0432905Y0057234*
X0432927Y0057256*
X0432938Y0057261*
X0432982Y0057289*
X0433027Y0057317*
X0433132Y0057361*
X0433243Y0057389*
X0433354Y0057411*
X0433454Y0057422*
X0433498Y0057428*
X0433532Y0057433*
X0433609*
X0433765Y0057428*
X0433903Y0057406*
X0434014Y0057372*
X0434109Y0057339*
X0434181Y0057306*
X0434237Y0057272*
X0434264Y005725*
X0434275Y0057245*
X0434353Y0057167*
X0434414Y0057084*
X0434464Y0056995*
X0434498Y0056906*
X043452Y0056823*
X0434537Y0056762*
X0434542Y0056734*
X0434548Y0056718*
Y0056707*
Y0056701*
X0435036Y005674*
X0435025Y0056862*
X0434997Y0056973*
X0434969Y0057078*
X043493Y0057167*
X0434897Y0057239*
X0434869Y0057295*
X0434858Y0057311*
X0434847Y0057328*
X0434842Y0057334*
Y0057339*
X0434769Y0057433*
X0434692Y0057517*
X0434609Y0057589*
X0434525Y0057644*
X0434453Y0057694*
X0434398Y0057722*
X0434375Y0057733*
X0434359Y0057744*
X0434348Y005775*
X0434342*
X043422Y0057794*
X0434087Y0057827*
X0433964Y0057855*
X0433848Y0057872*
X0433743Y0057883*
X0433704*
X0433665Y0057888*
G37*
G36*
X0403392Y0057822D02*
X0402709D01*
X0401788Y0055147*
X0401738Y0055003*
X04017Y0054881*
X0401661Y0054775*
X0401633Y0054686*
X0401611Y005462*
X0401594Y005457*
X0401588Y0054542*
X0401583Y0054531*
X0401561Y0054609*
X0401533Y0054698*
X04015Y0054792*
X0401472Y0054886*
X0401444Y0054969*
X0401422Y0055036*
X0401411Y0055064*
X0401405Y005508*
X04014Y0055091*
Y0055097*
X0400489Y0057822*
X0399729*
Y0053981*
X0400218*
Y005725*
X0401327Y0053981*
X0401783*
X0402904Y0057195*
Y0053981*
X0403392*
Y0057822*
G37*
G36*
X0427038D02*
X0424258D01*
Y0053981*
X0427127*
Y0054437*
X0424768*
Y0055741*
X0426894*
Y0056196*
X0424768*
Y0057367*
X0427038*
Y0057822*
G37*
G36*
X0419135D02*
X0416094D01*
Y0057367*
X0417359*
Y0053981*
X041787*
Y0057367*
X0419135*
Y0057822*
G37*
G36*
X0409811D02*
X0409256D01*
X040779Y0053981*
X0408329*
X0408745Y0055147*
X0410355*
X0410804Y0053981*
X0411381*
X0409811Y0057822*
G37*
%LNhigh_fre_amp-3*%
%LPD*%
G36*
X0409561Y0057295D02*
X0409605Y0057162D01*
X040965Y0057028*
X0409694Y0056901*
X0409716Y0056845*
X0409733Y005679*
X040975Y005674*
X0409766Y0056701*
X0409777Y0056668*
X0409788Y005664*
X0409794Y0056623*
Y0056618*
X0410194Y0055563*
X0408895*
X0409311Y0056684*
X0409361Y0056823*
X04094Y0056956*
X0409439Y0057078*
X0409467Y0057189*
X0409489Y0057284*
X04095Y0057322*
X0409505Y0057361*
X0409516Y0057383*
Y0057406*
X0409522Y0057417*
Y0057422*
X0409561Y0057295*
G37*
G54D10*
X0108996Y02115D02*
D01*
X0108968Y0212301*
X0108884Y0213099*
X0108744Y021389*
X010855Y0214668*
X0108302Y0215431*
X0108002Y0216175*
X010765Y0216897*
X0107249Y0217591*
X01068Y0218257*
X0106306Y0218889*
X0105769Y0219485*
X0105192Y0220043*
X0104577Y0220559*
X0103928Y022103*
X0103248Y0221455*
X0102539Y0221832*
X0101806Y0222158*
X0101052Y0222433*
X0100281Y0222654*
X0099496Y0222821*
X0098701Y0222933*
X0097901Y0222989*
X0097098*
X0096298Y0222933*
X0095503Y0222821*
X0094718Y0222654*
X0093947Y0222433*
X0093193Y0222158*
X009246Y0221832*
X0091751Y0221455*
X0091071Y022103*
X0090422Y0220559*
X0089807Y0220043*
X008923Y0219485*
X0088693Y0218889*
X0088199Y0218257*
X008775Y0217591*
X0087349Y0216897*
X0086997Y0216175*
X0086697Y0215431*
X0086449Y0214668*
X0086255Y021389*
X0086115Y0213099*
X0086031Y0212301*
X0086003Y02115*
X0086031Y0210698*
X0086115Y02099*
X0086255Y0209109*
X0086449Y0208331*
X0086697Y0207568*
X0086997Y0206824*
X0087349Y0206102*
X008775Y0205408*
X0088199Y0204742*
X0088693Y020411*
X008923Y0203514*
X0089807Y0202956*
X0090422Y020244*
X0091071Y0201969*
X0091751Y0201544*
X009246Y0201167*
X0093193Y0200841*
X0093947Y0200566*
X0094718Y0200345*
X0095503Y0200178*
X0096298Y0200066*
X0097098Y020001*
X0097901*
X0098701Y0200066*
X0099496Y0200178*
X0100281Y0200345*
X0101052Y0200566*
X0101806Y0200841*
X0102539Y0201167*
X0103248Y0201544*
X0103928Y0201969*
X0104577Y020244*
X0105192Y0202956*
X0105769Y0203514*
X0106306Y020411*
X01068Y0204742*
X0107249Y0205408*
X010765Y0206102*
X0108002Y0206824*
X0108302Y0207568*
X010855Y0208331*
X0108744Y0209109*
X0108884Y02099*
X0108968Y0210698*
X0108996Y02115*
X0122922Y0114122D02*
X0118987D01*
X0120955Y0112154D02*
Y011609D01*
X0210861Y0114122D02*
X0206925D01*
X0208893Y0112154D02*
Y011609D01*
X0298799Y0114122D02*
X0294863D01*
X0296831Y0112154D02*
Y011609D01*
X0034984Y0114122D02*
X0031048D01*
X0033016Y0112154D02*
Y011609D01*
G54D11*
X0257473Y0177D02*
D01*
X0257456Y0177495*
X0257404Y0177988*
X0257318Y0178476*
X0257198Y0178957*
X0257045Y0179428*
X0256859Y0179887*
X0256642Y0180333*
X0256394Y0180762*
X0256117Y0181173*
X0255812Y0181563*
X025548Y0181932*
X0255124Y0182276*
X0254744Y0182594*
X0254343Y0182886*
X0253923Y0183148*
X0253486Y0183381*
X0253033Y0183583*
X0252567Y0183752*
X0252091Y0183889*
X0251606Y0183992*
X0251115Y0184061*
X0250621Y0184095*
X0250125*
X0249631Y0184061*
X024914Y0183992*
X0248655Y0183889*
X0248179Y0183752*
X0247713Y0183583*
X0247261Y0183381*
X0246823Y0183148*
X0246403Y0182886*
X0246002Y0182594*
X0245622Y0182276*
X0245266Y0181932*
X0244934Y0181563*
X0244629Y0181173*
X0244352Y0180762*
X0244104Y0180333*
X0243887Y0179887*
X0243701Y0179428*
X0243548Y0178957*
X0243428Y0178476*
X0243342Y0177988*
X024329Y0177495*
X0243273Y0177*
X024329Y0176504*
X0243342Y0176011*
X0243428Y0175523*
X0243548Y0175042*
X0243701Y0174571*
X0243887Y0174112*
X0244104Y0173666*
X0244352Y0173237*
X0244629Y0172826*
X0244934Y0172436*
X0245266Y0172067*
X0245622Y0171723*
X0246002Y0171405*
X0246403Y0171113*
X0246823Y0170851*
X0247261Y0170618*
X0247713Y0170416*
X0248179Y0170247*
X0248655Y017011*
X024914Y0170007*
X0249631Y0169938*
X0250125Y0169904*
X0250621*
X0251115Y0169938*
X0251606Y0170007*
X0252091Y017011*
X0252567Y0170247*
X0253033Y0170416*
X0253486Y0170618*
X0253923Y0170851*
X0254343Y0171113*
X0254744Y0171405*
X0255124Y0171723*
X025548Y0172067*
X0255812Y0172436*
X0256117Y0172826*
X0256394Y0173237*
X0256642Y0173666*
X0256859Y0174112*
X0257045Y0174571*
X0257198Y0175042*
X0257318Y0175523*
X0257404Y0176011*
X0257456Y0176504*
X0257473Y0177*
X0433697Y0111691D02*
D01*
X0434095Y0111705*
X0434491Y0111746*
X0434884Y0111816*
X043527Y0111912*
X0435649Y0112035*
X0436019Y0112184*
X0436377Y0112359*
X0436722Y0112558*
X0437052Y0112781*
X0437366Y0113026*
X0437662Y0113293*
X0437939Y011358*
X0438195Y0113885*
X0438429Y0114207*
X0438641Y0114545*
X0438828Y0114897*
X043899Y0115261*
X0439126Y0115635*
X0439236Y0116018*
X0439319Y0116408*
X0439374Y0116803*
X0439402Y01172*
Y0117599*
X0439374Y0117996*
X0439319Y0118391*
X0439236Y0118781*
X0439126Y0119164*
X043899Y0119538*
X0438828Y0119902*
X0438641Y0120254*
X0438429Y0120592*
X0438195Y0120914*
X0437939Y0121219*
X0437662Y0121506*
X0437366Y0121773*
X0437052Y0122018*
X0436722Y0122241*
X0436377Y012244*
X0436019Y0122615*
X0435649Y0122764*
X043527Y0122887*
X0434884Y0122983*
X0434491Y0123053*
X0434095Y0123094*
X0433697Y0123108*
X038203Y0177D02*
D01*
X0382013Y0177495*
X0381961Y0177988*
X0381875Y0178476*
X0381755Y0178957*
X0381602Y0179428*
X0381416Y0179887*
X0381199Y0180333*
X0380951Y0180762*
X0380674Y0181173*
X0380369Y0181563*
X0380038Y0181932*
X0379681Y0182276*
X0379301Y0182594*
X03789Y0182886*
X037848Y0183148*
X0378043Y0183381*
X037759Y0183583*
X0377124Y0183752*
X0376648Y0183889*
X0376163Y0183992*
X0375672Y0184061*
X0375178Y0184095*
X0374682*
X0374188Y0184061*
X0373697Y0183992*
X0373213Y0183889*
X0372736Y0183752*
X0372271Y0183583*
X0371818Y0183381*
X037138Y0183148*
X037096Y0182886*
X0370559Y0182594*
X0370179Y0182276*
X0369823Y0181932*
X0369491Y0181563*
X0369186Y0181173*
X0368909Y0180762*
X0368661Y0180333*
X0368444Y0179887*
X0368258Y0179428*
X0368105Y0178957*
X0367985Y0178476*
X0367899Y0177988*
X0367848Y0177495*
X036783Y0177*
X0367848Y0176504*
X0367899Y0176011*
X0367985Y0175523*
X0368105Y0175042*
X0368258Y0174571*
X0368444Y0174112*
X0368661Y0173666*
X0368909Y0173237*
X0369186Y0172826*
X0369491Y0172436*
X0369823Y0172067*
X0370179Y0171723*
X0370559Y0171405*
X037096Y0171113*
X037138Y0170851*
X0371818Y0170618*
X0372271Y0170416*
X0372736Y0170247*
X0373213Y017011*
X0373697Y0170007*
X0374188Y0169938*
X0374682Y0169904*
X0375178*
X0375672Y0169938*
X0376163Y0170007*
X0376648Y017011*
X0377124Y0170247*
X037759Y0170416*
X0378043Y0170618*
X037848Y0170851*
X03789Y0171113*
X0379301Y0171405*
X0379681Y0171723*
X0380038Y0172067*
X0380369Y0172436*
X0380674Y0172826*
X0380951Y0173237*
X0381199Y0173666*
X0381416Y0174112*
X0381602Y0174571*
X0381755Y0175042*
X0381875Y0175523*
X0381961Y0176011*
X0382013Y0176504*
X038203Y0177*
X0256373Y01975D02*
X0263873D01*
X0201373D02*
X0250373D01*
X0256373Y01565D02*
X0263873D01*
X0201373D02*
X0250373D01*
X0263873D02*
Y01975D01*
X0201373Y01565D02*
Y01975D01*
X0404169Y0108738D02*
Y0126061D01*
X0429366*
Y0108738D02*
Y0126061D01*
X0404169Y0108738D02*
X0429366D01*
Y0123108D02*
X0433697D01*
X0429366Y0111691D02*
X0433697D01*
X032593Y01565D02*
Y01975D01*
X038843Y01565D02*
Y01975D01*
X032593Y01565D02*
X037493D01*
X038093D02*
X038843D01*
X032593Y01975D02*
X037493D01*
X038093D02*
X038843D01*
X0044014Y0042611D02*
X0083385D01*
Y0072139*
X0044014D02*
X0083385D01*
X0044014Y0042611D02*
Y0072139D01*
X0171455Y0042611D02*
X0210826D01*
Y0072139*
X0171455D02*
X0210826D01*
X0171455Y0042611D02*
Y0072139D01*
G54D12*
X031212Y026794D02*
D01*
X0312118Y0267975*
X0312115Y0268009*
X0312109Y0268043*
X0312101Y0268076*
X031209Y0268109*
X0312077Y0268141*
X0312062Y0268171*
X0312045Y0268201*
X0312026Y026823*
X0312004Y0268257*
X0311981Y0268282*
X0311957Y0268306*
X031193Y0268328*
X0311903Y0268348*
X0311874Y0268367*
X0311843Y0268383*
X0311812Y0268397*
X031178Y0268408*
X0311747Y0268418*
X0311713Y0268425*
X0311679Y026843*
X0311645Y0268432*
X031161*
X0311576Y026843*
X0311542Y0268425*
X0311508Y0268418*
X0311475Y0268408*
X0311443Y0268397*
X0311412Y0268383*
X0311381Y0268367*
X0311352Y0268348*
X0311324Y0268328*
X0311298Y0268306*
X0311273Y0268282*
X031125Y0268257*
X0311229Y026823*
X031121Y0268201*
X0311193Y0268171*
X0311178Y0268141*
X0311165Y0268109*
X0311154Y0268076*
X0311146Y0268043*
X031114Y0268009*
X0311137Y0267975*
X0311135Y026794*
X0311137Y0267906*
X031114Y0267872*
X0311146Y0267838*
X0311154Y0267805*
X0311165Y0267772*
X0311178Y026774*
X0311193Y0267709*
X031121Y026768*
X0311229Y0267651*
X031125Y0267624*
X0311273Y0267599*
X0311298Y0267575*
X0311324Y0267553*
X0311352Y0267532*
X0311381Y0267514*
X0311412Y0267498*
X0311443Y0267484*
X0311475Y0267472*
X0311508Y0267463*
X0311542Y0267456*
X0311576Y0267451*
X031161Y0267449*
X0311645*
X0311679Y0267451*
X0311713Y0267456*
X0311747Y0267463*
X031178Y0267472*
X0311812Y0267484*
X0311843Y0267498*
X0311874Y0267514*
X0311903Y0267532*
X031193Y0267553*
X0311957Y0267575*
X0311981Y0267599*
X0312004Y0267624*
X0312026Y0267651*
X0312045Y026768*
X0312062Y0267709*
X0312077Y026774*
X031209Y0267772*
X0312101Y0267805*
X0312109Y0267838*
X0312115Y0267872*
X0312118Y0267906*
X031212Y026794*
X018312D02*
D01*
X0183118Y0267975*
X0183115Y0268009*
X0183109Y0268043*
X0183101Y0268076*
X018309Y0268109*
X0183077Y0268141*
X0183062Y0268171*
X0183045Y0268201*
X0183026Y026823*
X0183004Y0268257*
X0182981Y0268282*
X0182957Y0268306*
X018293Y0268328*
X0182903Y0268348*
X0182874Y0268367*
X0182843Y0268383*
X0182812Y0268397*
X018278Y0268408*
X0182747Y0268418*
X0182713Y0268425*
X0182679Y026843*
X0182645Y0268432*
X018261*
X0182576Y026843*
X0182542Y0268425*
X0182508Y0268418*
X0182475Y0268408*
X0182443Y0268397*
X0182412Y0268383*
X0182381Y0268367*
X0182352Y0268348*
X0182324Y0268328*
X0182298Y0268306*
X0182273Y0268282*
X018225Y0268257*
X0182229Y026823*
X018221Y0268201*
X0182193Y0268171*
X0182178Y0268141*
X0182165Y0268109*
X0182154Y0268076*
X0182146Y0268043*
X018214Y0268009*
X0182137Y0267975*
X0182135Y026794*
X0182137Y0267906*
X018214Y0267872*
X0182146Y0267838*
X0182154Y0267805*
X0182165Y0267772*
X0182178Y026774*
X0182193Y0267709*
X018221Y026768*
X0182229Y0267651*
X018225Y0267624*
X0182273Y0267599*
X0182298Y0267575*
X0182324Y0267553*
X0182352Y0267532*
X0182381Y0267514*
X0182412Y0267498*
X0182443Y0267484*
X0182475Y0267472*
X0182508Y0267463*
X0182542Y0267456*
X0182576Y0267451*
X018261Y0267449*
X0182645*
X0182679Y0267451*
X0182713Y0267456*
X0182747Y0267463*
X018278Y0267472*
X0182812Y0267484*
X0182843Y0267498*
X0182874Y0267514*
X0182903Y0267532*
X018293Y0267553*
X0182957Y0267575*
X0182981Y0267599*
X0183004Y0267624*
X0183026Y0267651*
X0183045Y026768*
X0183062Y0267709*
X0183077Y026774*
X018309Y0267772*
X0183101Y0267805*
X0183109Y0267838*
X0183115Y0267872*
X0183118Y0267906*
X018312Y026794*
G54D13*
X0428113Y0243822D02*
D01*
X0427622Y0243576*
X0427149Y0243296*
X0426696Y0242984*
X0426266Y0242642*
X0425862Y024227*
X0425484Y0241871*
X0425135Y0241446*
X0424816Y0240998*
X0424529Y0240529*
X0424276Y0240041*
X0424058Y0239537*
X0423875Y0239019*
X0423729Y0238489*
X042362Y023795*
X0423549Y0237405*
X0423516Y0236857*
X0423521Y0236307*
X0423565Y0235759*
X0423647Y0235216*
X0423767Y0234679*
X0423924Y0234153*
X0424117Y0233638*
X0424345Y0233138*
X0424608Y0232656*
X0424904Y0232192*
X0425232Y0231751*
X0425589Y0231333*
X0425975Y0230942*
X0426387Y0230578*
X0426823Y0230244*
X0427155Y0230021*
X043562D02*
D01*
X0436073Y0230332*
X0436503Y0230674*
X0436908Y0231046*
X0437286Y0231445*
X0437636Y0231869*
X0437955Y0232316*
X0438242Y0232785*
X0438495Y0233272*
X0438714Y0233777*
X0438898Y0234295*
X0439045Y0234824*
X0439154Y0235363*
X0439226Y0235908*
X0439259Y0236456*
X0439254Y0237006*
X0439211Y0237554*
X0439129Y0238097*
X043901Y0238634*
X0438854Y0239161*
X0438662Y0239676*
X0438433Y0240176*
X0438171Y0240659*
X0437876Y0241122*
X0437549Y0241564*
X0437192Y0241981*
X0436806Y0242373*
X0436395Y0242737*
X0435959Y0243072*
X04355Y0243375*
X0435022Y0243646*
X0434662Y0243822*
Y0167838D02*
D01*
X0435154Y0168084*
X0435627Y0168364*
X0436079Y0168676*
X0436509Y0169018*
X0436914Y016939*
X0437292Y0169789*
X0437641Y0170214*
X0437959Y0170662*
X0438246Y0171131*
X0438499Y0171619*
X0438718Y0172123*
X04389Y0172641*
X0439047Y0173171*
X0439155Y017371*
X0439227Y0174255*
X0439259Y0174803*
X0439254Y0175353*
X043921Y0175901*
X0439128Y0176444*
X0439009Y0176981*
X0438852Y0177507*
X0438659Y0178022*
X043843Y0178522*
X0438167Y0179005*
X0437871Y0179468*
X0437544Y0179909*
X0437186Y0180327*
X0436801Y0180718*
X0436389Y0181082*
X0435952Y0181416*
X043562Y0181639*
X0427155D02*
D01*
X0426703Y0181328*
X0426273Y0180986*
X0425867Y0180614*
X0425489Y0180215*
X042514Y0179791*
X0424821Y0179344*
X0424534Y0178875*
X042428Y0178388*
X0424061Y0177884*
X0423878Y0177365*
X0423731Y0176836*
X0423621Y0176297*
X042355Y0175752*
X0423516Y0175204*
X0423521Y0174654*
X0423565Y0174106*
X0423646Y0173563*
X0423765Y0173026*
X0423921Y0172499*
X0424114Y0171984*
X0424342Y0171484*
X0424604Y0171002*
X04249Y0170538*
X0425227Y0170096*
X0425584Y0169679*
X0425969Y0169287*
X0426381Y0168923*
X0426817Y0168588*
X0427275Y0168285*
X0427754Y0168014*
X0428113Y0167838*
X0147674Y0201638D02*
D01*
X0148165Y0201884*
X0148639Y0202164*
X0149091Y0202476*
X0149521Y0202818*
X0149926Y020319*
X0150303Y0203589*
X0150653Y0204014*
X0150971Y0204462*
X0151258Y0204931*
X0151511Y0205419*
X0151729Y0205923*
X0151912Y0206441*
X0152058Y0206971*
X0152167Y020751*
X0152238Y0208055*
X0152271Y0208603*
X0152266Y0209153*
X0152222Y0209701*
X015214Y0210244*
X015202Y0210781*
X0151864Y0211307*
X015167Y0211822*
X0151442Y0212322*
X0151179Y0212805*
X0150883Y0213268*
X0150556Y0213709*
X0150198Y0214127*
X0149812Y0214518*
X01494Y0214882*
X0148964Y0215216*
X0148632Y0215439*
X0140167D02*
D01*
X0139714Y0215128*
X0139284Y0214786*
X0138879Y0214414*
X0138501Y0214015*
X0138152Y0213591*
X0137832Y0213144*
X0137545Y0212675*
X0137292Y0212188*
X0137073Y0211684*
X0136889Y0211165*
X0136743Y0210636*
X0136633Y0210097*
X0136562Y0209552*
X0136528Y0209004*
X0136533Y0208454*
X0136576Y0207906*
X0136658Y0207363*
X0136777Y0206826*
X0136933Y0206299*
X0137126Y0205784*
X0137354Y0205284*
X0137616Y0204802*
X0137911Y0204338*
X0138239Y0203896*
X0138596Y0203479*
X0138981Y0203087*
X0139393Y0202723*
X0139829Y0202388*
X0140287Y0202085*
X0140765Y0201814*
X0141125Y0201638*
X0184938Y0114173D02*
D01*
X0184865Y0116265*
X0184646Y0118348*
X0184282Y012041*
X0183776Y0122442*
X0183128Y0124433*
X0182344Y0126375*
X0181426Y0128257*
X0180379Y013007*
X0179208Y0131806*
X0177919Y0133456*
X0176518Y0135012*
X0175012Y0136467*
X0173408Y0137813*
X0171713Y0139044*
X0169938Y0140153*
X0168089Y0141137*
X0166176Y0141988*
X0164208Y0142704*
X0162195Y0143282*
X0160147Y0143717*
X0158074Y0144008*
X0155985Y0144154*
X0153891*
X0151802Y0144008*
X0149728Y0143717*
X014768Y0143282*
X0145667Y0142704*
X0143699Y0141988*
X0141787Y0141137*
X0139938Y0140153*
X0138162Y0139044*
X0136468Y0137813*
X0134864Y0136467*
X0133357Y0135012*
X0131956Y0133456*
X0130667Y0131806*
X0129496Y013007*
X0128449Y0128257*
X0127531Y0126375*
X0126747Y0124433*
X01261Y0122442*
X0125593Y012041*
X012523Y0118348*
X0125011Y0116265*
X0124938Y0114173*
X0125011Y011208*
X012523Y0109998*
X0125593Y0107935*
X01261Y0105904*
X0126747Y0103912*
X0127531Y0101971*
X0128449Y0100089*
X0129496Y0098275*
X0130667Y0096539*
X0131956Y0094889*
X0133357Y0093333*
X0134864Y0091878*
X0136468Y0090532*
X0138162Y0089302*
X0139938Y0088192*
X0141787Y0087209*
X0143699Y0086357*
X0145667Y0085641*
X014768Y0085064*
X0149728Y0084628*
X0151802Y0084337*
X0153891Y0084191*
X0155985*
X0158074Y0084337*
X0160147Y0084628*
X0162195Y0085064*
X0164208Y0085641*
X0166176Y0086357*
X0168089Y0087209*
X0169938Y0088192*
X0171713Y0089302*
X0173408Y0090532*
X0175012Y0091878*
X0176518Y0093333*
X0177919Y0094889*
X0179208Y0096539*
X0180379Y0098275*
X0181426Y0100089*
X0182344Y0101971*
X0183128Y0103912*
X0183776Y0105904*
X0184282Y0107935*
X0184646Y0109998*
X0184865Y011208*
X0184938Y0114173*
X0272876D02*
D01*
X0272803Y0116265*
X0272584Y0118348*
X027222Y012041*
X0271714Y0122442*
X0271067Y0124433*
X0270282Y0126375*
X0269364Y0128257*
X0268317Y013007*
X0267146Y0131806*
X0265857Y0133456*
X0264456Y0135012*
X026295Y0136467*
X0261346Y0137813*
X0259652Y0139044*
X0257876Y0140153*
X0256027Y0141137*
X0254114Y0141988*
X0252146Y0142704*
X0250134Y0143282*
X0248085Y0143717*
X0246012Y0144008*
X0243923Y0144154*
X0241829*
X023974Y0144008*
X0237666Y0143717*
X0235618Y0143282*
X0233605Y0142704*
X0231638Y0141988*
X0229725Y0141137*
X0227876Y0140153*
X02261Y0139044*
X0224406Y0137813*
X0222802Y0136467*
X0221296Y0135012*
X0219895Y0133456*
X0218605Y0131806*
X0217434Y013007*
X0216387Y0128257*
X021547Y0126375*
X0214685Y0124433*
X0214038Y0122442*
X0213531Y012041*
X0213168Y0118348*
X0212949Y0116265*
X0212876Y0114173*
X0212949Y011208*
X0213168Y0109998*
X0213531Y0107935*
X0214038Y0105904*
X0214685Y0103912*
X021547Y0101971*
X0216387Y0100089*
X0217434Y0098275*
X0218605Y0096539*
X0219895Y0094889*
X0221296Y0093333*
X0222802Y0091878*
X0224406Y0090532*
X02261Y0089302*
X0227876Y0088192*
X0229725Y0087209*
X0231638Y0086357*
X0233605Y0085641*
X0235618Y0085064*
X0237666Y0084628*
X023974Y0084337*
X0241829Y0084191*
X0243923*
X0246012Y0084337*
X0248085Y0084628*
X0250134Y0085064*
X0252146Y0085641*
X0254114Y0086357*
X0256027Y0087209*
X0257876Y0088192*
X0259652Y0089302*
X0261346Y0090532*
X026295Y0091878*
X0264456Y0093333*
X0265857Y0094889*
X0267146Y0096539*
X0268317Y0098275*
X0269364Y0100089*
X0270282Y0101971*
X0271067Y0103912*
X0271714Y0105904*
X027222Y0107935*
X0272584Y0109998*
X0272803Y011208*
X0272876Y0114173*
X0360814D02*
D01*
X0360741Y0116265*
X0360522Y0118348*
X0360158Y012041*
X0359652Y0122442*
X0359005Y0124433*
X035822Y0126375*
X0357302Y0128257*
X0356256Y013007*
X0355085Y0131806*
X0353795Y0133456*
X0352394Y0135012*
X0350888Y0136467*
X0349284Y0137813*
X034759Y0139044*
X0345814Y0140153*
X0343965Y0141137*
X0342052Y0141988*
X0340085Y0142704*
X0338072Y0143282*
X0336024Y0143717*
X033395Y0144008*
X0331861Y0144154*
X0329767*
X0327678Y0144008*
X0325605Y0143717*
X0323556Y0143282*
X0321544Y0142704*
X0319576Y0141988*
X0317663Y0141137*
X0315814Y0140153*
X0314038Y0139044*
X0312344Y0137813*
X031074Y0136467*
X0309234Y0135012*
X0307833Y0133456*
X0306544Y0131806*
X0305373Y013007*
X0304326Y0128257*
X0303408Y0126375*
X0302623Y0124433*
X0301976Y0122442*
X030147Y012041*
X0301106Y0118348*
X0300887Y0116265*
X0300814Y0114173*
X0300887Y011208*
X0301106Y0109998*
X030147Y0107935*
X0301976Y0105904*
X0302623Y0103912*
X0303408Y0101971*
X0304326Y0100089*
X0305373Y0098275*
X0306544Y0096539*
X0307833Y0094889*
X0309234Y0093333*
X031074Y0091878*
X0312344Y0090532*
X0314038Y0089302*
X0315814Y0088192*
X0317663Y0087209*
X0319576Y0086357*
X0321544Y0085641*
X0323556Y0085064*
X0325605Y0084628*
X0327678Y0084337*
X0329767Y0084191*
X0331861*
X033395Y0084337*
X0336024Y0084628*
X0338072Y0085064*
X0340085Y0085641*
X0342052Y0086357*
X0343965Y0087209*
X0345814Y0088192*
X034759Y0089302*
X0349284Y0090532*
X0350888Y0091878*
X0352394Y0093333*
X0353795Y0094889*
X0355085Y0096539*
X0356256Y0098275*
X0357302Y0100089*
X035822Y0101971*
X0359005Y0103912*
X0359652Y0105904*
X0360158Y0107935*
X0360522Y0109998*
X0360741Y011208*
X0360814Y0114173*
X0097D02*
D01*
X0096926Y0116265*
X0096708Y0118348*
X0096344Y012041*
X0095837Y0122442*
X009519Y0124433*
X0094406Y0126375*
X0093488Y0128257*
X0092441Y013007*
X009127Y0131806*
X0089981Y0133456*
X008858Y0135012*
X0087073Y0136467*
X0085469Y0137813*
X0083775Y0139044*
X0082Y0140153*
X0080151Y0141137*
X0078238Y0141988*
X007627Y0142704*
X0074257Y0143282*
X0072209Y0143717*
X0070135Y0144008*
X0068046Y0144154*
X0065953*
X0063864Y0144008*
X006179Y0143717*
X0059742Y0143282*
X0057729Y0142704*
X0055761Y0141988*
X0053848Y0141137*
X0051999Y0140153*
X0050224Y0139044*
X004853Y0137813*
X0046926Y0136467*
X0045419Y0135012*
X0044018Y0133456*
X0042729Y0131806*
X0041558Y013007*
X0040511Y0128257*
X0039593Y0126375*
X0038809Y0124433*
X0038162Y0122442*
X0037655Y012041*
X0037291Y0118348*
X0037073Y0116265*
X0037Y0114173*
X0037073Y011208*
X0037291Y0109998*
X0037655Y0107935*
X0038162Y0105904*
X0038809Y0103912*
X0039593Y0101971*
X0040511Y0100089*
X0041558Y0098275*
X0042729Y0096539*
X0044018Y0094889*
X0045419Y0093333*
X0046926Y0091878*
X004853Y0090532*
X0050224Y0089302*
X0052Y0088192*
X0053848Y0087209*
X0055761Y0086357*
X0057729Y0085641*
X0059742Y0085064*
X006179Y0084628*
X0063864Y0084337*
X0065953Y0084191*
X0068046*
X0070135Y0084337*
X0072209Y0084628*
X0074257Y0085064*
X007627Y0085641*
X0078238Y0086357*
X0080151Y0087209*
X0082Y0088192*
X0083775Y0089302*
X0085469Y0090532*
X0087073Y0091878*
X008858Y0093333*
X0089981Y0094889*
X009127Y0096539*
X0092441Y0098275*
X0093488Y0100089*
X0094406Y0101971*
X009519Y0103912*
X0095837Y0105904*
X0096344Y0107935*
X0096708Y0109998*
X0096926Y011208*
X0097Y0114173*
X008614Y0058359D02*
D01*
X0086139Y0058387*
X0086137Y0058414*
X0086132Y0058441*
X0086125Y0058468*
X0086117Y0058494*
X0086106Y0058519*
X0086094Y0058544*
X0086081Y0058568*
X0086065Y0058591*
X0086048Y0058612*
X008603Y0058633*
X008601Y0058652*
X0085989Y005867*
X0085967Y0058686*
X0085944Y00587*
X0085919Y0058713*
X0085894Y0058724*
X0085868Y0058734*
X0085842Y0058741*
X0085815Y0058747*
X0085788Y0058751*
X008576Y0058753*
X0085733*
X0085706Y0058751*
X0085678Y0058747*
X0085651Y0058741*
X0085625Y0058734*
X0085599Y0058724*
X0085574Y0058713*
X008555Y00587*
X0085527Y0058686*
X0085504Y005867*
X0085483Y0058652*
X0085464Y0058633*
X0085445Y0058612*
X0085428Y0058591*
X0085413Y0058568*
X0085399Y0058544*
X0085387Y0058519*
X0085377Y0058494*
X0085368Y0058468*
X0085362Y0058441*
X0085357Y0058414*
X0085354Y0058387*
X0085353Y0058359*
X0085354Y0058332*
X0085357Y0058305*
X0085362Y0058277*
X0085368Y0058251*
X0085377Y0058225*
X0085387Y0058199*
X0085399Y0058175*
X0085413Y0058151*
X0085428Y0058128*
X0085445Y0058106*
X0085464Y0058086*
X0085483Y0058067*
X0085504Y0058049*
X0085527Y0058033*
X008555Y0058018*
X0085574Y0058005*
X0085599Y0057994*
X0085625Y0057985*
X0085651Y0057977*
X0085678Y0057972*
X0085706Y0057968*
X0085733Y0057966*
X008576*
X0085788Y0057968*
X0085815Y0057972*
X0085842Y0057977*
X0085868Y0057985*
X0085894Y0057994*
X0085919Y0058005*
X0085944Y0058018*
X0085967Y0058033*
X0085989Y0058049*
X008601Y0058067*
X008603Y0058086*
X0086048Y0058106*
X0086065Y0058128*
X0086081Y0058151*
X0086094Y0058175*
X0086106Y0058199*
X0086117Y0058225*
X0086125Y0058251*
X0086132Y0058277*
X0086137Y0058305*
X0086139Y0058332*
X008614Y0058359*
X0213582D02*
D01*
X0213581Y0058387*
X0213578Y0058414*
X0213573Y0058441*
X0213567Y0058468*
X0213558Y0058494*
X0213548Y0058519*
X0213536Y0058544*
X0213522Y0058568*
X0213507Y0058591*
X021349Y0058612*
X0213471Y0058633*
X0213452Y0058652*
X021343Y005867*
X0213408Y0058686*
X0213385Y00587*
X0213361Y0058713*
X0213336Y0058724*
X021331Y0058734*
X0213283Y0058741*
X0213256Y0058747*
X0213229Y0058751*
X0213202Y0058753*
X0213174*
X0213147Y0058751*
X021312Y0058747*
X0213093Y0058741*
X0213066Y0058734*
X0213041Y0058724*
X0213015Y0058713*
X0212991Y00587*
X0212968Y0058686*
X0212946Y005867*
X0212925Y0058652*
X0212905Y0058633*
X0212886Y0058612*
X021287Y0058591*
X0212854Y0058568*
X021284Y0058544*
X0212828Y0058519*
X0212818Y0058494*
X021281Y0058468*
X0212803Y0058441*
X0212798Y0058414*
X0212795Y0058387*
X0212794Y0058359*
X0212795Y0058332*
X0212798Y0058305*
X0212803Y0058277*
X021281Y0058251*
X0212818Y0058225*
X0212828Y0058199*
X021284Y0058175*
X0212854Y0058151*
X021287Y0058128*
X0212886Y0058106*
X0212905Y0058086*
X0212925Y0058067*
X0212946Y0058049*
X0212968Y0058033*
X0212991Y0058018*
X0213015Y0058005*
X0213041Y0057994*
X0213066Y0057985*
X0213093Y0057977*
X021312Y0057972*
X0213147Y0057968*
X0213174Y0057966*
X0213202*
X0213229Y0057968*
X0213256Y0057972*
X0213283Y0057977*
X021331Y0057985*
X0213336Y0057994*
X0213361Y0058005*
X0213385Y0058018*
X0213408Y0058033*
X021343Y0058049*
X0213452Y0058067*
X0213471Y0058086*
X021349Y0058106*
X0213507Y0058128*
X0213522Y0058151*
X0213536Y0058175*
X0213548Y0058199*
X0213558Y0058225*
X0213567Y0058251*
X0213573Y0058277*
X0213578Y0058305*
X0213581Y0058332*
X0213582Y0058359*
X0106953Y0204968D02*
X0108979Y0202942D01*
X0104031Y0202046D02*
X0106057Y020002D01*
X0108979Y0202942*
X0304836Y0226996D02*
Y0264003D01*
Y0226996D02*
X0322946Y0225027D01*
X0304836Y0264003D02*
X0322946Y0265972D01*
Y0225027D02*
Y0265972D01*
X0175836Y0226996D02*
Y0264003D01*
Y0226996D02*
X0193946Y0225027D01*
X0175836Y0264003D02*
X0193946Y0265972D01*
Y0225027D02*
Y0265972D01*
X0281135Y0199405D02*
Y0205405D01*
Y0163405D02*
Y0169405D01*
X0276135Y0199405D02*
X0286135D01*
Y0169405D02*
Y0199405D01*
X0276135Y0169405D02*
X0286135D01*
X0276135D02*
Y0199405D01*
X004437Y0156643D02*
Y0159643D01*
Y0156643D02*
X006437D01*
Y0162643*
X004437D02*
X006437D01*
X004437Y0159643D02*
Y0162643D01*
X006437Y0159643D02*
X006527D01*
X004347D02*
X004437D01*
X0089385Y0156643D02*
Y0159643D01*
Y0156643D02*
X0109385D01*
Y0162643*
X0089385D02*
X0109385D01*
X0089385Y0159643D02*
Y0162643D01*
X0109385Y0159643D02*
X0110285D01*
X0088485D02*
X0089385D01*
X01544D02*
Y0162643D01*
X01344D02*
X01544D01*
X01344Y0156643D02*
Y0162643D01*
Y0156643D02*
X01544D01*
Y0159643*
X01335D02*
X01344D01*
X01544D02*
X01553D01*
X04115Y0094025D02*
Y0097025D01*
Y0094025D02*
X04315D01*
Y0100025*
X04115D02*
X04315D01*
X04115Y0097025D02*
Y0100025D01*
X04315Y0097025D02*
X04324D01*
X04106D02*
X04115D01*
X0407388Y0251661D02*
Y0257661D01*
Y0215661D02*
Y0221661D01*
X0402388Y0251661D02*
X0412388D01*
Y0221661D02*
Y0251661D01*
X0402388Y0221661D02*
X0412388D01*
X0402388D02*
Y0251661D01*
X0407388Y0154D02*
Y016D01*
Y019D02*
Y0196D01*
X0402388Y016D02*
X0412388D01*
X0402388D02*
Y019D01*
X0412388*
Y016D02*
Y019D01*
X0281135Y0223D02*
Y0229D01*
Y0259D02*
Y0265D01*
X0276135Y0229D02*
X0286135D01*
X0276135D02*
Y0259D01*
X0286135*
Y0229D02*
Y0259D01*
X004437Y0207533D02*
Y0210533D01*
Y0207533D02*
X006437D01*
Y0213533*
X004437D02*
X006437D01*
X004437Y0210533D02*
Y0213533D01*
X006437Y0210533D02*
X006527D01*
X004347D02*
X004437D01*
X0089385Y0258423D02*
Y0261423D01*
Y0258423D02*
X0109385D01*
Y0264423*
X0089385D02*
X0109385D01*
X0089385Y0261423D02*
Y0264423D01*
X0109385Y0261423D02*
X0110285D01*
X0088485D02*
X0089385D01*
X004437Y0258423D02*
Y0261423D01*
Y0258423D02*
X006437D01*
Y0264423*
X004437D02*
X006437D01*
X004437Y0261423D02*
Y0264423D01*
X006437Y0261423D02*
X006527D01*
X004347D02*
X004437D01*
X01344Y0258423D02*
Y0261423D01*
Y0258423D02*
X01544D01*
Y0264423*
X01344D02*
X01544D01*
X01344Y0261423D02*
Y0264423D01*
X01544Y0261423D02*
X01553D01*
X01335D02*
X01344D01*
X029904Y0052375D02*
Y0062375D01*
X031904*
Y0052375D02*
Y0062375D01*
X029904Y0052375D02*
X031904D01*
G54D14*
X0203873Y0195D02*
X0236373D01*
Y0159D02*
Y0195D01*
X0203873Y0159D02*
X0236373D01*
X0203873D02*
Y0195D01*
X032843Y0159D02*
Y0195D01*
Y0159D02*
X036093D01*
Y0195*
X032843D02*
X036093D01*
G54D15*
X033388Y0054892D02*
Y0061557D01*
X0337212Y0064889*
X0340544Y0061557*
Y0054892*
Y0059891*
X033388*
X0343877Y0054892D02*
Y0064889D01*
X0350541Y0054892*
Y0064889*
X0353874Y0054892D02*
Y0061557D01*
X0357206Y0064889*
X0360538Y0061557*
Y0054892*
Y0059891*
X0353874*
X036387Y0064889D02*
Y0054892D01*
X0370535*
X0378866Y0064889D02*
X0375533D01*
X0373867Y0063223*
Y0056559*
X0375533Y0054892*
X0378866*
X0380532Y0056559*
Y0063223*
X0378866Y0064889*
X0390528Y0063223D02*
X0388862Y0064889D01*
X038553*
X0383864Y0063223*
Y0056559*
X038553Y0054892*
X0388862*
X0390528Y0056559*
Y0059891*
X0387196*
G54D16*
X0175373Y0206798D02*
X0179372D01*
X0177372*
Y02008*
X018537D02*
X0181371D01*
X018537Y0204798*
Y0205798*
X018437Y0206798*
X0182371*
X0181371Y0205798*
X02999Y0206798D02*
X0303898D01*
X0301899*
Y02008*
X0308897D02*
Y0206798D01*
X0305898Y0203798*
X0309896*
X0417344Y0084727D02*
Y0090725D01*
X0420344*
X0421343Y0089725*
Y0087725*
X0420344Y0086726*
X0417344*
X0419344D02*
X0421343Y0084727D01*
X0423343D02*
X0425342D01*
X0424342*
Y0090725*
X0423343Y0089725*
X0093801Y0164801D02*
Y0170798D01*
X00968*
X00978Y0169799*
Y01678*
X00968Y01668*
X0093801*
X0095801D02*
X00978Y0164801D01*
X0103798Y0170798D02*
X0101799Y0169799D01*
X0099799Y01678*
Y01658*
X0100799Y0164801*
X0102798*
X0103798Y01658*
Y01668*
X0102798Y01678*
X0099799*
X0093801Y02678D02*
Y0273798D01*
X00968*
X00978Y0272798*
Y0270799*
X00968Y0269799*
X0093801*
X0095801D02*
X00978Y02678D01*
X0102798D02*
Y0273798D01*
X0099799Y0270799*
X0103798*
X0273734Y0236702D02*
X0267736D01*
Y0239701*
X0268736Y0240701*
X0270735*
X0271735Y0239701*
Y0236702*
Y0238701D02*
X0273734Y0240701D01*
Y02427D02*
Y02447D01*
Y02437*
X0267736*
X0268736Y02427*
Y0247698D02*
X0267736Y0248698D01*
Y0250698*
X0268736Y0251697*
X0272734*
X0273734Y0250698*
Y0248698*
X0272734Y0247698*
X0268736*
X0139001Y0164801D02*
Y0170798D01*
X0142*
X0143Y0169799*
Y01678*
X0142Y01668*
X0139001*
X0141001D02*
X0143Y0164801D01*
X0144999Y0169799D02*
X0145999Y0170798D01*
X0147998*
X0148998Y0169799*
Y0168799*
X0147998Y01678*
X0148998Y01668*
Y01658*
X0147998Y0164801*
X0145999*
X0144999Y01658*
Y01668*
X0145999Y01678*
X0144999Y0168799*
Y0169799*
X0145999Y01678D02*
X0147998D01*
X0400694Y0230037D02*
X0394696D01*
Y0233036*
X0395696Y0234036*
X0397695*
X0398694Y0233036*
Y0230037*
Y0232037D02*
X0400694Y0234036D01*
Y0236035D02*
Y0238035D01*
Y0237035*
X0394696*
X0395696Y0236035*
X0400694Y0245032D02*
Y0241033D01*
X0396695Y0245032*
X0395696*
X0394696Y0244033*
Y0242033*
X0395696Y0241033*
X0049201Y0164801D02*
Y0170798D01*
X00522*
X00532Y0169799*
Y01678*
X00522Y01668*
X0049201*
X00512D02*
X00532Y0164801D01*
X0059198D02*
X0055199D01*
X0059198Y0168799*
Y0169799*
X0058198Y0170798*
X0056199*
X0055199Y0169799*
X0049201Y02678D02*
Y0273798D01*
X00522*
X00532Y0272798*
Y0270799*
X00522Y0269799*
X0049201*
X00512D02*
X00532Y02678D01*
X0055199Y0272798D02*
X0056199Y0273798D01*
X0058198*
X0059198Y0272798*
Y0271798*
X0058198Y0270799*
X0057199*
X0058198*
X0059198Y0269799*
Y0268799*
X0058198Y02678*
X0056199*
X0055199Y0268799*
X0399694Y0168375D02*
X0393696D01*
Y0171375*
X0394696Y0172374*
X0396695*
X0397694Y0171375*
Y0168375*
Y0170375D02*
X0399694Y0172374D01*
Y0174374D02*
Y0176373D01*
Y0175374*
X0393696*
X0394696Y0174374*
X0399694Y0179372D02*
Y0181372D01*
Y0180372*
X0393696*
X0394696Y0179372*
X0139001Y02678D02*
Y0273798D01*
X0142*
X0143Y0272798*
Y0270799*
X0142Y0269799*
X0139001*
X0141001D02*
X0143Y02678D01*
X0144999Y0273798D02*
X0148998D01*
Y0272798*
X0144999Y0268799*
Y02678*
X0049201Y02169D02*
Y0222898D01*
X00522*
X00532Y0221898*
Y0219899*
X00522Y0218899*
X0049201*
X00512D02*
X00532Y02169D01*
X0059198Y0222898D02*
X0055199D01*
Y0219899*
X0057199Y0220898*
X0058198*
X0059198Y0219899*
Y0217899*
X0058198Y02169*
X0056199*
X0055199Y0217899*
X0273734Y0180107D02*
X0267736D01*
Y0183106*
X0268736Y0184106*
X0270735*
X0271735Y0183106*
Y0180107*
Y0182106D02*
X0273734Y0184106D01*
X0272734Y0186105D02*
X0273734Y0187105D01*
Y0189104*
X0272734Y0190104*
X0268736*
X0267736Y0189104*
Y0187105*
X0268736Y0186105*
X0269735*
X0270735Y0187105*
Y0190104*
X0305Y0277898D02*
X0308998D01*
X0306999*
Y02719*
X0314996Y0277898D02*
X0310998D01*
Y0274898*
X0312997Y0275898*
X0313997*
X0314996Y0274898*
Y0272899*
X0313997Y02719*
X0311997*
X0310998Y0272899*
X00862Y0232798D02*
X0090198D01*
X0088199*
Y02268*
X0092198D02*
X0094197D01*
X0093197*
Y0232798*
X0092198Y0231798*
X0176Y0277937D02*
X0179998D01*
X0177999*
Y0271939*
X0181998Y0276937D02*
X0182997Y0277937D01*
X0184997*
X0185996Y0276937*
Y0275938*
X0184997Y0274938*
X0183997*
X0184997*
X0185996Y0273938*
Y0272938*
X0184997Y0271939*
X0182997*
X0181998Y0272938*
X029964Y00658D02*
Y0071798D01*
X030264*
X0303639Y0070798*
Y0068799*
X030264Y0067799*
X029964*
X0305638Y00658D02*
X0307638D01*
X0306638*
Y0071798*
X0305638Y0070798*
X0175339Y0082172D02*
X017334D01*
X017434*
Y0077173*
X017334Y0076174*
X017234*
X017134Y0077173*
X0181337Y0076174D02*
X0177339D01*
X0181337Y0080172*
Y0081172*
X0180338Y0082172*
X0178338*
X0177339Y0081172*
X0047898Y0082172D02*
X0045899D01*
X0046898*
Y0077173*
X0045899Y0076174*
X0044899*
X00439Y0077173*
X0049898Y0076174D02*
X0051897D01*
X0050897*
Y0082172*
X0049898Y0081172*
X0282875Y0110172D02*
X0281875Y0109172D01*
Y0107173*
X0282875Y0106174*
X0286874*
X0287873Y0107173*
Y0109172*
X0286874Y0110172*
X0287873Y011517D02*
X0281875D01*
X0284874Y0112172*
Y011617*
X0428087Y0195898D02*
X0427087Y0196898D01*
X0425087*
X0424088Y0195898*
Y0191899*
X0425087Y01909*
X0427087*
X0428087Y0191899*
X0434085Y0196898D02*
X0432085Y0195898D01*
X0430086Y0193899*
Y0191899*
X0431085Y01909*
X0433085*
X0434085Y0191899*
Y0192899*
X0433085Y0193899*
X0430086*
X0194937Y0110172D02*
X0193937Y0109172D01*
Y0107173*
X0194937Y0106174*
X0198935*
X0199935Y0107173*
Y0109172*
X0198935Y0110172*
X0199935Y011617D02*
Y0112172D01*
X0195937Y011617*
X0194937*
X0193937Y011517*
Y0113171*
X0194937Y0112172*
X0368515Y0113173D02*
X0367515Y0112174D01*
Y0110174*
X0368515Y0109174*
X0372513*
X0373513Y0110174*
Y0112174*
X0372513Y0113173*
X0367515Y0115172D02*
Y0119171D01*
X0368515*
X0372513Y0115172*
X0373513*
X0428098Y0257598D02*
X0427098Y0258598D01*
X0425099*
X04241Y0257598*
Y0253599*
X0425099Y02526*
X0427098*
X0428098Y0253599*
X0434096Y0258598D02*
X0430098D01*
Y0255598*
X0432097Y0256598*
X0433097*
X0434096Y0255598*
Y0253599*
X0433097Y02526*
X0431097*
X0430098Y0253599*
X0141098Y0229698D02*
X0140099Y0230698D01*
X0138099*
X01371Y0229698*
Y0225699*
X0138099Y02247*
X0140099*
X0141098Y0225699*
X0143098Y0229698D02*
X0144097Y0230698D01*
X0146097*
X0147096Y0229698*
Y0228698*
X0146097Y0227698*
X0145097*
X0146097*
X0147096Y0226699*
Y0225699*
X0146097Y02247*
X0144097*
X0143098Y0225699*
X0104799Y0112872D02*
X0103799Y0111872D01*
Y0109873*
X0104799Y0108873*
X0108798*
X0109797Y0109873*
Y0111872*
X0108798Y0112872*
X0109797Y0114871D02*
Y011687D01*
Y0115871*
X0103799*
X0104799Y0114871*
M02*