%FSTAX25Y25*%
%MOIN*%
%SFA1B1*%

%IPPOS*%
%ADD11C,0.005000*%
%ADD50C,0.006665*%
%ADD51C,0.004000*%
%LNhigh_fre_amp-1*%
%LPD*%
G54D11*
X00325Y02791D02*
X00345Y02811D01*
X00365Y02791*
X00345Y02771*
X00325Y02791*
X00955Y02145D02*
X00965D01*
X00975Y02155*
X00985Y02145*
X00995*
Y02155*
X00985Y02165*
X00995Y02175*
Y02185*
X00985*
X00975Y02175*
X00965Y02185*
X00955*
Y02175*
X00965Y02165*
X00955Y02155*
Y02145*
X01005Y02095D02*
X01015D01*
X01025Y02105*
X01035Y02095*
X01045*
Y02105*
X01035Y02115*
X01045Y02125*
Y02135*
X01035*
X01025Y02125*
X01015Y02135*
X01005*
Y02125*
X01015Y02115*
X01005Y02105*
Y02095*
X00905D02*
X00915D01*
X00925Y02105*
X00935Y02095*
X00945*
Y02105*
X00935Y02115*
X00945Y02125*
Y02135*
X00935*
X00925Y02125*
X00915Y02135*
X00905*
Y02125*
X00915Y02115*
X00905Y02105*
Y02095*
X03115Y023346D02*
X03095Y023746D01*
X03135*
X03115Y023346*
Y02435D02*
X03095Y02475D01*
X03135*
X03115Y02435*
Y0253539D02*
X03095Y0257539D01*
X03135*
X03115Y0253539*
X01825Y023346D02*
X01805Y023746D01*
X01845*
X01825Y023346*
Y02435D02*
X01805Y02475D01*
X01845*
X01825Y02435*
Y0253539D02*
X01805Y0257539D01*
X01845*
X01825Y0253539*
X0281135Y0207405D02*
X0282135Y0208405D01*
X0283135*
X0282135Y0209405*
X0283135Y0210405*
X0282135*
X0281135Y0211405*
X0280135Y0210405*
X0279135*
X0280135Y0209405*
X0279135Y0208405*
X0280135*
X0281135Y0207405*
Y0157405D02*
X0282135Y0158405D01*
X0283135*
X0282135Y0159405*
X0283135Y0160405*
X0282135*
X0281135Y0161405*
X0280135Y0160405*
X0279135*
X0280135Y0159405*
X0279135Y0158405*
X0280135*
X0281135Y0157405*
X003937Y0157643D02*
X004037Y0158643D01*
X004137*
X004037Y0159643*
X004137Y0160643*
X004037*
X003937Y0161643*
X003837Y0160643*
X003737*
X003837Y0159643*
X003737Y0158643*
X003837*
X003937Y0157643*
X006937D02*
X007037Y0158643D01*
X007137*
X007037Y0159643*
X007137Y0160643*
X007037*
X006937Y0161643*
X006837Y0160643*
X006737*
X006837Y0159643*
X006737Y0158643*
X006837*
X006937Y0157643*
X0084385D02*
X0085385Y0158643D01*
X0086385*
X0085385Y0159643*
X0086385Y0160643*
X0085385*
X0084385Y0161643*
X0083385Y0160643*
X0082385*
X0083385Y0159643*
X0082385Y0158643*
X0083385*
X0084385Y0157643*
X0114385D02*
X0115385Y0158643D01*
X0116385*
X0115385Y0159643*
X0116385Y0160643*
X0115385*
X0114385Y0161643*
X0113385Y0160643*
X0112385*
X0113385Y0159643*
X0112385Y0158643*
X0113385*
X0114385Y0157643*
X01594D02*
X01604Y0158643D01*
X01614*
X01604Y0159643*
X01614Y0160643*
X01604*
X01594Y0161643*
X01584Y0160643*
X01574*
X01584Y0159643*
X01574Y0158643*
X01584*
X01594Y0157643*
X01294D02*
X01304Y0158643D01*
X01314*
X01304Y0159643*
X01314Y0160643*
X01304*
X01294Y0161643*
X01284Y0160643*
X01274*
X01284Y0159643*
X01274Y0158643*
X01284*
X01294Y0157643*
X04486Y00369D02*
X04506Y00389D01*
X04526Y00369*
X04506Y00349*
X04486Y00369*
X00325D02*
X00345Y00389D01*
X00365Y00369*
X00345Y00349*
X00325Y00369*
X04065Y0095025D02*
X04075Y0096025D01*
X04085*
X04075Y0097025*
X04085Y0098025*
X04075*
X04065Y0099025*
X04055Y0098025*
X04045*
X04055Y0097025*
X04045Y0096025*
X04055*
X04065Y0095025*
X04365D02*
X04375Y0096025D01*
X04385*
X04375Y0097025*
X04385Y0098025*
X04375*
X04365Y0099025*
X04355Y0098025*
X04345*
X04355Y0097025*
X04345Y0096025*
X04355*
X04365Y0095025*
X0411043Y01214D02*
Y01204D01*
X0413043*
Y01214*
X0414043*
Y01234*
X0413043*
Y01244*
X0411043*
Y01234*
X0410043*
Y01214*
X0411043*
Y01114D02*
Y01104D01*
X0413043*
Y01114*
X0414043*
Y01134*
X0413043*
Y01144*
X0411043*
Y01134*
X0410043*
Y01114*
X0411043*
X0430388Y0245503D02*
Y0244503D01*
X0432388*
Y0245503*
X0433388*
Y0247503*
X0432388*
Y0248503*
X0430388*
Y0247503*
X0429388*
Y0245503*
X0430388*
Y0225818D02*
Y0224818D01*
X0432388*
Y0225818*
X0433388*
Y0227818*
X0432388*
Y0228818*
X0430388*
Y0227818*
X0429388*
Y0225818*
X0430388*
X0407388Y0259661D02*
X0408388Y0260661D01*
X0409388*
X0408388Y0261661*
X0409388Y0262661*
X0408388*
X0407388Y0263661*
X0406388Y0262661*
X0405388*
X0406388Y0261661*
X0405388Y0260661*
X0406388*
X0407388Y0259661*
Y0209661D02*
X0408388Y0210661D01*
X0409388*
X0408388Y0211661*
X0409388Y0212661*
X0408388*
X0407388Y0213661*
X0406388Y0212661*
X0405388*
X0406388Y0211661*
X0405388Y0210661*
X0406388*
X0407388Y0209661*
Y0148D02*
X0408388Y0149D01*
X0409388*
X0408388Y015*
X0409388Y0151*
X0408388*
X0407388Y0152*
X0406388Y0151*
X0405388*
X0406388Y015*
X0405388Y0149*
X0406388*
X0407388Y0148*
Y0198D02*
X0408388Y0199D01*
X0409388*
X0408388Y02*
X0409388Y0201*
X0408388*
X0407388Y0202*
X0406388Y0201*
X0405388*
X0406388Y02*
X0405388Y0199*
X0406388*
X0407388Y0198*
X0430388Y0164157D02*
Y0163157D01*
X0432388*
Y0164157*
X0433388*
Y0166157*
X0432388*
Y0167157*
X0430388*
Y0166157*
X0429388*
Y0164157*
X0430388*
Y0183842D02*
Y0182842D01*
X0432388*
Y0183842*
X0433388*
Y0185842*
X0432388*
Y0186842*
X0430388*
Y0185842*
X0429388*
Y0183842*
X0430388*
X0281135Y0217D02*
X0282135Y0218D01*
X0283135*
X0282135Y0219*
X0283135Y022*
X0282135*
X0281135Y0221*
X0280135Y022*
X0279135*
X0280135Y0219*
X0279135Y0218*
X0280135*
X0281135Y0217*
Y0267D02*
X0282135Y0268D01*
X0283135*
X0282135Y0269*
X0283135Y027*
X0282135*
X0281135Y0271*
X0280135Y027*
X0279135*
X0280135Y0269*
X0279135Y0268*
X0280135*
X0281135Y0267*
X003937Y0208533D02*
X004037Y0209533D01*
X004137*
X004037Y0210533*
X004137Y0211533*
X004037*
X003937Y0212533*
X003837Y0211533*
X003737*
X003837Y0210533*
X003737Y0209533*
X003837*
X003937Y0208533*
X006937D02*
X007037Y0209533D01*
X007137*
X007037Y0210533*
X007137Y0211533*
X007037*
X006937Y0212533*
X006837Y0211533*
X006737*
X006837Y0210533*
X006737Y0209533*
X006837*
X006937Y0208533*
X01434Y0197957D02*
Y0196957D01*
X01454*
Y0197957*
X01464*
Y0199957*
X01454*
Y0200957*
X01434*
Y0199957*
X01424*
Y0197957*
X01434*
Y0217642D02*
Y0216642D01*
X01454*
Y0217642*
X01464*
Y0219642*
X01454*
Y0220642*
X01434*
Y0219642*
X01424*
Y0217642*
X01434*
X0137938Y0112173D02*
X0138938Y0114173D01*
X0137938Y0116173*
X0139938Y0115173*
X0141938Y0116173*
X0140938Y0114173*
X0141938Y0112173*
X0139938Y0113173*
X0137938Y0112173*
X0167938D02*
X0168938Y0114173D01*
X0167938Y0116173*
X0169938Y0115173*
X0171938Y0116173*
X0170938Y0114173*
X0171938Y0112173*
X0169938Y0113173*
X0167938Y0112173*
X0225876D02*
X0226876Y0114173D01*
X0225876Y0116173*
X0227876Y0115173*
X0229876Y0116173*
X0228876Y0114173*
X0229876Y0112173*
X0227876Y0113173*
X0225876Y0112173*
X0255876D02*
X0256876Y0114173D01*
X0255876Y0116173*
X0257876Y0115173*
X0259876Y0116173*
X0258876Y0114173*
X0259876Y0112173*
X0257876Y0113173*
X0255876Y0112173*
X0313814D02*
X0314814Y0114173D01*
X0313814Y0116173*
X0315814Y0115173*
X0317814Y0116173*
X0316814Y0114173*
X0317814Y0112173*
X0315814Y0113173*
X0313814Y0112173*
X0343814D02*
X0344814Y0114173D01*
X0343814Y0116173*
X0345814Y0115173*
X0347814Y0116173*
X0346814Y0114173*
X0347814Y0112173*
X0345814Y0113173*
X0343814Y0112173*
X005D02*
X0051Y0114173D01*
X005Y0116173*
X0052Y0115173*
X0054Y0116173*
X0053Y0114173*
X0054Y0112173*
X0052Y0113173*
X005Y0112173*
X008D02*
X0081Y0114173D01*
X008Y0116173*
X0082Y0115173*
X0084Y0116173*
X0083Y0114173*
X0084Y0112173*
X0082Y0113173*
X008Y0112173*
X04486Y02791D02*
X04506Y02811D01*
X04526Y02791*
X04506Y02771*
X04486Y02791*
X0084385Y0259423D02*
X0085385Y0260423D01*
X0086385*
X0085385Y0261423*
X0086385Y0262423*
X0085385*
X0084385Y0263423*
X0083385Y0262423*
X0082385*
X0083385Y0261423*
X0082385Y0260423*
X0083385*
X0084385Y0259423*
X0114385D02*
X0115385Y0260423D01*
X0116385*
X0115385Y0261423*
X0116385Y0262423*
X0115385*
X0114385Y0263423*
X0113385Y0262423*
X0112385*
X0113385Y0261423*
X0112385Y0260423*
X0113385*
X0114385Y0259423*
X003937D02*
X004037Y0260423D01*
X004137*
X004037Y0261423*
X004137Y0262423*
X004037*
X003937Y0263423*
X003837Y0262423*
X003737*
X003837Y0261423*
X003737Y0260423*
X003837*
X003937Y0259423*
X006937D02*
X007037Y0260423D01*
X007137*
X007037Y0261423*
X007137Y0262423*
X007037*
X006937Y0263423*
X006837Y0262423*
X006737*
X006837Y0261423*
X006737Y0260423*
X006837*
X006937Y0259423*
X0071542Y0056359D02*
Y0060359D01*
X0075542*
Y0056359*
X0071542*
X0051857D02*
Y0060359D01*
X0055857*
Y0056359*
X0051857*
X01294Y0259423D02*
X01304Y0260423D01*
X01314*
X01304Y0261423*
X01314Y0262423*
X01304*
X01294Y0263423*
X01284Y0262423*
X01274*
X01284Y0261423*
X01274Y0260423*
X01284*
X01294Y0259423*
X01594D02*
X01604Y0260423D01*
X01614*
X01604Y0261423*
X01614Y0262423*
X01604*
X01594Y0263423*
X01584Y0262423*
X01574*
X01584Y0261423*
X01574Y0260423*
X01584*
X01594Y0259423*
X031204Y0055375D02*
Y0059375D01*
X031604*
Y0055375*
X031204*
X031284Y0056175D02*
Y0058575D01*
X031524*
Y0056175*
X031284*
X030204Y0055375D02*
Y0059375D01*
X030604*
Y0055375*
X030204*
X030284Y0056175D02*
Y0058575D01*
X030524*
Y0056175*
X030284*
X0198983Y0056359D02*
Y0060359D01*
X0202983*
Y0056359*
X0198983*
X0179298D02*
Y0060359D01*
X0183298*
Y0056359*
X0179298*
G54D50*
X0252373Y0177D02*
D01*
X0252368Y0177139*
X0252354Y0177278*
X0252329Y0177415*
X0252296Y0177551*
X0252253Y0177684*
X02522Y0177813*
X0252139Y0177938*
X0252069Y0178059*
X0251991Y0178175*
X0251905Y0178285*
X0251812Y0178389*
X0251711Y0178486*
X0251604Y0178576*
X0251492Y0178658*
X0251373Y0178732*
X025125Y0178797*
X0251122Y0178854*
X0250991Y0178902*
X0250857Y017894*
X025072Y0178969*
X0250582Y0178989*
X0250443Y0178998*
X0250303*
X0250164Y0178989*
X0250026Y0178969*
X0249889Y017894*
X0249755Y0178902*
X0249624Y0178854*
X0249496Y0178797*
X0249373Y0178732*
X0249255Y0178658*
X0249142Y0178576*
X0249035Y0178486*
X0248934Y0178389*
X0248841Y0178285*
X0248755Y0178175*
X0248677Y0178059*
X0248607Y0177938*
X0248546Y0177813*
X0248494Y0177684*
X0248451Y0177551*
X0248417Y0177415*
X0248393Y0177278*
X0248378Y0177139*
X0248373Y0177*
X0248378Y017686*
X0248393Y0176721*
X0248417Y0176584*
X0248451Y0176448*
X0248494Y0176315*
X0248546Y0176186*
X0248607Y0176061*
X0248677Y017594*
X0248755Y0175824*
X0248841Y0175714*
X0248934Y017561*
X0249035Y0175513*
X0249142Y0175423*
X0249255Y0175341*
X0249373Y0175267*
X0249496Y0175202*
X0249624Y0175145*
X0249755Y0175097*
X0249889Y0175059*
X0250026Y017503*
X0250164Y017501*
X0250303Y0175001*
X0250443*
X0250582Y017501*
X025072Y017503*
X0250857Y0175059*
X0250991Y0175097*
X0251122Y0175145*
X025125Y0175202*
X0251373Y0175267*
X0251492Y0175341*
X0251604Y0175423*
X0251711Y0175513*
X0251812Y017561*
X0251905Y0175714*
X0251991Y0175824*
X0252069Y017594*
X0252139Y0176061*
X02522Y0176186*
X0252253Y0176315*
X0252296Y0176448*
X0252329Y0176584*
X0252354Y0176721*
X0252368Y017686*
X0252373Y0177*
X0183373Y0167D02*
D01*
X0183368Y0167139*
X0183354Y0167278*
X0183329Y0167415*
X0183296Y0167551*
X0183253Y0167684*
X01832Y0167813*
X0183139Y0167938*
X0183069Y0168059*
X0182991Y0168175*
X0182905Y0168285*
X0182812Y0168389*
X0182711Y0168486*
X0182604Y0168576*
X0182492Y0168658*
X0182373Y0168732*
X018225Y0168797*
X0182122Y0168854*
X0181991Y0168902*
X0181857Y016894*
X018172Y0168969*
X0181582Y0168989*
X0181443Y0168998*
X0181303*
X0181164Y0168989*
X0181026Y0168969*
X0180889Y016894*
X0180755Y0168902*
X0180624Y0168854*
X0180496Y0168797*
X0180373Y0168732*
X0180255Y0168658*
X0180142Y0168576*
X0180035Y0168486*
X0179934Y0168389*
X0179841Y0168285*
X0179755Y0168175*
X0179677Y0168059*
X0179607Y0167938*
X0179546Y0167813*
X0179494Y0167684*
X0179451Y0167551*
X0179417Y0167415*
X0179393Y0167278*
X0179378Y0167139*
X0179373Y0167*
X0179378Y016686*
X0179393Y0166721*
X0179417Y0166584*
X0179451Y0166448*
X0179494Y0166315*
X0179546Y0166186*
X0179607Y0166061*
X0179677Y016594*
X0179755Y0165824*
X0179841Y0165714*
X0179934Y016561*
X0180035Y0165513*
X0180142Y0165423*
X0180255Y0165341*
X0180373Y0165267*
X0180496Y0165202*
X0180624Y0165145*
X0180755Y0165097*
X0180889Y0165059*
X0181026Y016503*
X0181164Y016501*
X0181303Y0165001*
X0181443*
X0181582Y016501*
X018172Y016503*
X0181857Y0165059*
X0181991Y0165097*
X0182122Y0165145*
X018225Y0165202*
X0182373Y0165267*
X0182492Y0165341*
X0182604Y0165423*
X0182711Y0165513*
X0182812Y016561*
X0182905Y0165714*
X0182991Y0165824*
X0183069Y016594*
X0183139Y0166061*
X01832Y0166186*
X0183253Y0166315*
X0183296Y0166448*
X0183329Y0166584*
X0183354Y0166721*
X0183368Y016686*
X0183373Y0167*
Y0177D02*
D01*
X0183368Y0177139*
X0183354Y0177278*
X0183329Y0177415*
X0183296Y0177551*
X0183253Y0177684*
X01832Y0177813*
X0183139Y0177938*
X0183069Y0178059*
X0182991Y0178175*
X0182905Y0178285*
X0182812Y0178389*
X0182711Y0178486*
X0182604Y0178576*
X0182492Y0178658*
X0182373Y0178732*
X018225Y0178797*
X0182122Y0178854*
X0181991Y0178902*
X0181857Y017894*
X018172Y0178969*
X0181582Y0178989*
X0181443Y0178998*
X0181303*
X0181164Y0178989*
X0181026Y0178969*
X0180889Y017894*
X0180755Y0178902*
X0180624Y0178854*
X0180496Y0178797*
X0180373Y0178732*
X0180255Y0178658*
X0180142Y0178576*
X0180035Y0178486*
X0179934Y0178389*
X0179841Y0178285*
X0179755Y0178175*
X0179677Y0178059*
X0179607Y0177938*
X0179546Y0177813*
X0179494Y0177684*
X0179451Y0177551*
X0179417Y0177415*
X0179393Y0177278*
X0179378Y0177139*
X0179373Y0177*
X0179378Y017686*
X0179393Y0176721*
X0179417Y0176584*
X0179451Y0176448*
X0179494Y0176315*
X0179546Y0176186*
X0179607Y0176061*
X0179677Y017594*
X0179755Y0175824*
X0179841Y0175714*
X0179934Y017561*
X0180035Y0175513*
X0180142Y0175423*
X0180255Y0175341*
X0180373Y0175267*
X0180496Y0175202*
X0180624Y0175145*
X0180755Y0175097*
X0180889Y0175059*
X0181026Y017503*
X0181164Y017501*
X0181303Y0175001*
X0181443*
X0181582Y017501*
X018172Y017503*
X0181857Y0175059*
X0181991Y0175097*
X0182122Y0175145*
X018225Y0175202*
X0182373Y0175267*
X0182492Y0175341*
X0182604Y0175423*
X0182711Y0175513*
X0182812Y017561*
X0182905Y0175714*
X0182991Y0175824*
X0183069Y017594*
X0183139Y0176061*
X01832Y0176186*
X0183253Y0176315*
X0183296Y0176448*
X0183329Y0176584*
X0183354Y0176721*
X0183368Y017686*
X0183373Y0177*
Y0187D02*
D01*
X0183368Y0187139*
X0183354Y0187278*
X0183329Y0187415*
X0183296Y0187551*
X0183253Y0187684*
X01832Y0187813*
X0183139Y0187938*
X0183069Y0188059*
X0182991Y0188175*
X0182905Y0188285*
X0182812Y0188389*
X0182711Y0188486*
X0182604Y0188576*
X0182492Y0188658*
X0182373Y0188732*
X018225Y0188797*
X0182122Y0188854*
X0181991Y0188902*
X0181857Y018894*
X018172Y0188969*
X0181582Y0188989*
X0181443Y0188998*
X0181303*
X0181164Y0188989*
X0181026Y0188969*
X0180889Y018894*
X0180755Y0188902*
X0180624Y0188854*
X0180496Y0188797*
X0180373Y0188732*
X0180255Y0188658*
X0180142Y0188576*
X0180035Y0188486*
X0179934Y0188389*
X0179841Y0188285*
X0179755Y0188175*
X0179677Y0188059*
X0179607Y0187938*
X0179546Y0187813*
X0179494Y0187684*
X0179451Y0187551*
X0179417Y0187415*
X0179393Y0187278*
X0179378Y0187139*
X0179373Y0187*
X0179378Y018686*
X0179393Y0186721*
X0179417Y0186584*
X0179451Y0186448*
X0179494Y0186315*
X0179546Y0186186*
X0179607Y0186061*
X0179677Y018594*
X0179755Y0185824*
X0179841Y0185714*
X0179934Y018561*
X0180035Y0185513*
X0180142Y0185423*
X0180255Y0185341*
X0180373Y0185267*
X0180496Y0185202*
X0180624Y0185145*
X0180755Y0185097*
X0180889Y0185059*
X0181026Y018503*
X0181164Y018501*
X0181303Y0185001*
X0181443*
X0181582Y018501*
X018172Y018503*
X0181857Y0185059*
X0181991Y0185097*
X0182122Y0185145*
X018225Y0185202*
X0182373Y0185267*
X0182492Y0185341*
X0182604Y0185423*
X0182711Y0185513*
X0182812Y018561*
X0182905Y0185714*
X0182991Y0185824*
X0183069Y018594*
X0183139Y0186061*
X01832Y0186186*
X0183253Y0186315*
X0183296Y0186448*
X0183329Y0186584*
X0183354Y0186721*
X0183368Y018686*
X0183373Y0187*
X030793D02*
D01*
X0307925Y0187139*
X0307911Y0187278*
X0307887Y0187415*
X0307853Y0187551*
X030781Y0187684*
X0307757Y0187813*
X0307696Y0187938*
X0307626Y0188059*
X0307548Y0188175*
X0307462Y0188285*
X0307369Y0188389*
X0307268Y0188486*
X0307162Y0188576*
X0307049Y0188658*
X030693Y0188732*
X0306807Y0188797*
X0306679Y0188854*
X0306548Y0188902*
X0306414Y018894*
X0306278Y0188969*
X0306139Y0188989*
X0306Y0188998*
X030586*
X0305721Y0188989*
X0305583Y0188969*
X0305446Y018894*
X0305312Y0188902*
X0305181Y0188854*
X0305053Y0188797*
X030493Y0188732*
X0304812Y0188658*
X0304699Y0188576*
X0304592Y0188486*
X0304492Y0188389*
X0304398Y0188285*
X0304312Y0188175*
X0304234Y0188059*
X0304164Y0187938*
X0304103Y0187813*
X0304051Y0187684*
X0304008Y0187551*
X0303974Y0187415*
X030395Y0187278*
X0303935Y0187139*
X030393Y0187*
X0303935Y018686*
X030395Y0186721*
X0303974Y0186584*
X0304008Y0186448*
X0304051Y0186315*
X0304103Y0186186*
X0304164Y0186061*
X0304234Y018594*
X0304312Y0185824*
X0304398Y0185714*
X0304492Y018561*
X0304592Y0185513*
X0304699Y0185423*
X0304812Y0185341*
X030493Y0185267*
X0305053Y0185202*
X0305181Y0185145*
X0305312Y0185097*
X0305446Y0185059*
X0305583Y018503*
X0305721Y018501*
X030586Y0185001*
X0306*
X0306139Y018501*
X0306278Y018503*
X0306414Y0185059*
X0306548Y0185097*
X0306679Y0185145*
X0306807Y0185202*
X030693Y0185267*
X0307049Y0185341*
X0307162Y0185423*
X0307268Y0185513*
X0307369Y018561*
X0307462Y0185714*
X0307548Y0185824*
X0307626Y018594*
X0307696Y0186061*
X0307757Y0186186*
X030781Y0186315*
X0307853Y0186448*
X0307887Y0186584*
X0307911Y0186721*
X0307925Y018686*
X030793Y0187*
Y0177D02*
D01*
X0307925Y0177139*
X0307911Y0177278*
X0307887Y0177415*
X0307853Y0177551*
X030781Y0177684*
X0307757Y0177813*
X0307696Y0177938*
X0307626Y0178059*
X0307548Y0178175*
X0307462Y0178285*
X0307369Y0178389*
X0307268Y0178486*
X0307162Y0178576*
X0307049Y0178658*
X030693Y0178732*
X0306807Y0178797*
X0306679Y0178854*
X0306548Y0178902*
X0306414Y017894*
X0306278Y0178969*
X0306139Y0178989*
X0306Y0178998*
X030586*
X0305721Y0178989*
X0305583Y0178969*
X0305446Y017894*
X0305312Y0178902*
X0305181Y0178854*
X0305053Y0178797*
X030493Y0178732*
X0304812Y0178658*
X0304699Y0178576*
X0304592Y0178486*
X0304492Y0178389*
X0304398Y0178285*
X0304312Y0178175*
X0304234Y0178059*
X0304164Y0177938*
X0304103Y0177813*
X0304051Y0177684*
X0304008Y0177551*
X0303974Y0177415*
X030395Y0177278*
X0303935Y0177139*
X030393Y0177*
X0303935Y017686*
X030395Y0176721*
X0303974Y0176584*
X0304008Y0176448*
X0304051Y0176315*
X0304103Y0176186*
X0304164Y0176061*
X0304234Y017594*
X0304312Y0175824*
X0304398Y0175714*
X0304492Y017561*
X0304592Y0175513*
X0304699Y0175423*
X0304812Y0175341*
X030493Y0175267*
X0305053Y0175202*
X0305181Y0175145*
X0305312Y0175097*
X0305446Y0175059*
X0305583Y017503*
X0305721Y017501*
X030586Y0175001*
X0306*
X0306139Y017501*
X0306278Y017503*
X0306414Y0175059*
X0306548Y0175097*
X0306679Y0175145*
X0306807Y0175202*
X030693Y0175267*
X0307049Y0175341*
X0307162Y0175423*
X0307268Y0175513*
X0307369Y017561*
X0307462Y0175714*
X0307548Y0175824*
X0307626Y017594*
X0307696Y0176061*
X0307757Y0176186*
X030781Y0176315*
X0307853Y0176448*
X0307887Y0176584*
X0307911Y0176721*
X0307925Y017686*
X030793Y0177*
Y0167D02*
D01*
X0307925Y0167139*
X0307911Y0167278*
X0307887Y0167415*
X0307853Y0167551*
X030781Y0167684*
X0307757Y0167813*
X0307696Y0167938*
X0307626Y0168059*
X0307548Y0168175*
X0307462Y0168285*
X0307369Y0168389*
X0307268Y0168486*
X0307162Y0168576*
X0307049Y0168658*
X030693Y0168732*
X0306807Y0168797*
X0306679Y0168854*
X0306548Y0168902*
X0306414Y016894*
X0306278Y0168969*
X0306139Y0168989*
X0306Y0168998*
X030586*
X0305721Y0168989*
X0305583Y0168969*
X0305446Y016894*
X0305312Y0168902*
X0305181Y0168854*
X0305053Y0168797*
X030493Y0168732*
X0304812Y0168658*
X0304699Y0168576*
X0304592Y0168486*
X0304492Y0168389*
X0304398Y0168285*
X0304312Y0168175*
X0304234Y0168059*
X0304164Y0167938*
X0304103Y0167813*
X0304051Y0167684*
X0304008Y0167551*
X0303974Y0167415*
X030395Y0167278*
X0303935Y0167139*
X030393Y0167*
X0303935Y016686*
X030395Y0166721*
X0303974Y0166584*
X0304008Y0166448*
X0304051Y0166315*
X0304103Y0166186*
X0304164Y0166061*
X0304234Y016594*
X0304312Y0165824*
X0304398Y0165714*
X0304492Y016561*
X0304592Y0165513*
X0304699Y0165423*
X0304812Y0165341*
X030493Y0165267*
X0305053Y0165202*
X0305181Y0165145*
X0305312Y0165097*
X0305446Y0165059*
X0305583Y016503*
X0305721Y016501*
X030586Y0165001*
X0306*
X0306139Y016501*
X0306278Y016503*
X0306414Y0165059*
X0306548Y0165097*
X0306679Y0165145*
X0306807Y0165202*
X030693Y0165267*
X0307049Y0165341*
X0307162Y0165423*
X0307268Y0165513*
X0307369Y016561*
X0307462Y0165714*
X0307548Y0165824*
X0307626Y016594*
X0307696Y0166061*
X0307757Y0166186*
X030781Y0166315*
X0307853Y0166448*
X0307887Y0166584*
X0307911Y0166721*
X0307925Y016686*
X030793Y0167*
X037693Y0177D02*
D01*
X0376925Y0177139*
X0376911Y0177278*
X0376887Y0177415*
X0376853Y0177551*
X037681Y0177684*
X0376757Y0177813*
X0376696Y0177938*
X0376626Y0178059*
X0376548Y0178175*
X0376462Y0178285*
X0376369Y0178389*
X0376268Y0178486*
X0376162Y0178576*
X0376049Y0178658*
X037593Y0178732*
X0375807Y0178797*
X0375679Y0178854*
X0375548Y0178902*
X0375414Y017894*
X0375278Y0178969*
X0375139Y0178989*
X0375Y0178998*
X037486*
X0374721Y0178989*
X0374583Y0178969*
X0374446Y017894*
X0374312Y0178902*
X0374181Y0178854*
X0374053Y0178797*
X037393Y0178732*
X0373812Y0178658*
X0373699Y0178576*
X0373592Y0178486*
X0373492Y0178389*
X0373398Y0178285*
X0373312Y0178175*
X0373234Y0178059*
X0373164Y0177938*
X0373103Y0177813*
X0373051Y0177684*
X0373008Y0177551*
X0372974Y0177415*
X037295Y0177278*
X0372935Y0177139*
X037293Y0177*
X0372935Y017686*
X037295Y0176721*
X0372974Y0176584*
X0373008Y0176448*
X0373051Y0176315*
X0373103Y0176186*
X0373164Y0176061*
X0373234Y017594*
X0373312Y0175824*
X0373398Y0175714*
X0373492Y017561*
X0373592Y0175513*
X0373699Y0175423*
X0373812Y0175341*
X037393Y0175267*
X0374053Y0175202*
X0374181Y0175145*
X0374312Y0175097*
X0374446Y0175059*
X0374583Y017503*
X0374721Y017501*
X037486Y0175001*
X0375*
X0375139Y017501*
X0375278Y017503*
X0375414Y0175059*
X0375548Y0175097*
X0375679Y0175145*
X0375807Y0175202*
X037593Y0175267*
X0376049Y0175341*
X0376162Y0175423*
X0376268Y0175513*
X0376369Y017561*
X0376462Y0175714*
X0376548Y0175824*
X0376626Y017594*
X0376696Y0176061*
X0376757Y0176186*
X037681Y0176315*
X0376853Y0176448*
X0376887Y0176584*
X0376911Y0176721*
X0376925Y017686*
X037693Y0177*
G54D51*
X0251573Y0177D02*
D01*
X025157Y0177083*
X0251561Y0177167*
X0251547Y0177249*
X0251527Y017733*
X0251501Y017741*
X0251469Y0177488*
X0251433Y0177563*
X0251391Y0177635*
X0251344Y0177705*
X0251292Y0177771*
X0251236Y0177833*
X0251176Y0177891*
X0251112Y0177945*
X0251044Y0177994*
X0250973Y0178039*
X0250899Y0178078*
X0250823Y0178112*
X0250744Y0178141*
X0250663Y0178164*
X0250581Y0178181*
X0250499Y0178193*
X0250415Y0178199*
X0250331*
X0250248Y0178193*
X0250165Y0178181*
X0250083Y0178164*
X0250002Y0178141*
X0249924Y0178112*
X0249847Y0178078*
X0249773Y0178039*
X0249702Y0177994*
X0249634Y0177945*
X024957Y0177891*
X024951Y0177833*
X0249454Y0177771*
X0249402Y0177705*
X0249355Y0177635*
X0249314Y0177563*
X0249277Y0177488*
X0249245Y017741*
X024922Y017733*
X0249199Y0177249*
X0249185Y0177167*
X0249176Y0177083*
X0249173Y0177*
X0249176Y0176916*
X0249185Y0176832*
X0249199Y017675*
X024922Y0176669*
X0249245Y0176589*
X0249277Y0176511*
X0249314Y0176436*
X0249355Y0176364*
X0249402Y0176294*
X0249454Y0176228*
X024951Y0176166*
X024957Y0176108*
X0249634Y0176054*
X0249702Y0176005*
X0249773Y017596*
X0249847Y0175921*
X0249924Y0175887*
X0250002Y0175858*
X0250083Y0175835*
X0250165Y0175818*
X0250248Y0175806*
X0250331Y01758*
X0250415*
X0250499Y0175806*
X0250581Y0175818*
X0250663Y0175835*
X0250744Y0175858*
X0250823Y0175887*
X0250899Y0175921*
X0250973Y017596*
X0251044Y0176005*
X0251112Y0176054*
X0251176Y0176108*
X0251236Y0176166*
X0251292Y0176228*
X0251344Y0176294*
X0251391Y0176364*
X0251433Y0176436*
X0251469Y0176511*
X0251501Y0176589*
X0251527Y0176669*
X0251547Y017675*
X0251561Y0176832*
X025157Y0176916*
X0251573Y0177*
X037613D02*
D01*
X0376127Y0177083*
X0376119Y0177167*
X0376104Y0177249*
X0376084Y017733*
X0376058Y017741*
X0376026Y0177488*
X037599Y0177563*
X0375948Y0177635*
X0375901Y0177705*
X0375849Y0177771*
X0375793Y0177833*
X0375733Y0177891*
X0375669Y0177945*
X0375601Y0177994*
X037553Y0178039*
X0375456Y0178078*
X037538Y0178112*
X0375301Y0178141*
X0375221Y0178164*
X0375139Y0178181*
X0375056Y0178193*
X0374972Y0178199*
X0374888*
X0374805Y0178193*
X0374722Y0178181*
X037464Y0178164*
X0374559Y0178141*
X0374481Y0178112*
X0374404Y0178078*
X037433Y0178039*
X0374259Y0177994*
X0374191Y0177945*
X0374127Y0177891*
X0374067Y0177833*
X0374011Y0177771*
X0373959Y0177705*
X0373913Y0177635*
X0373871Y0177563*
X0373834Y0177488*
X0373803Y017741*
X0373777Y017733*
X0373756Y0177249*
X0373742Y0177167*
X0373733Y0177083*
X037373Y0177*
X0373733Y0176916*
X0373742Y0176832*
X0373756Y017675*
X0373777Y0176669*
X0373803Y0176589*
X0373834Y0176511*
X0373871Y0176436*
X0373913Y0176364*
X0373959Y0176294*
X0374011Y0176228*
X0374067Y0176166*
X0374127Y0176108*
X0374191Y0176054*
X0374259Y0176005*
X037433Y017596*
X0374404Y0175921*
X0374481Y0175887*
X0374559Y0175858*
X037464Y0175835*
X0374722Y0175818*
X0374805Y0175806*
X0374888Y01758*
X0374972*
X0375056Y0175806*
X0375139Y0175818*
X0375221Y0175835*
X0375301Y0175858*
X037538Y0175887*
X0375456Y0175921*
X037553Y017596*
X0375601Y0176005*
X0375669Y0176054*
X0375733Y0176108*
X0375793Y0176166*
X0375849Y0176228*
X0375901Y0176294*
X0375948Y0176364*
X037599Y0176436*
X0376026Y0176511*
X0376058Y0176589*
X0376084Y0176669*
X0376104Y017675*
X0376119Y0176832*
X0376127Y0176916*
X037613Y0177*
M02*