%FSTAX25Y25*%
%MOIN*%
%SFA1B1*%

%IPPOS*%
%ADD18C,0.043307*%
%ADD19R,0.043307X0.043307*%
%ADD22C,0.078740*%
%ADD23R,0.078740X0.078740*%
%ADD34C,0.025000*%
%ADD35C,0.040000*%
%ADD36C,0.085000*%
%ADD37C,0.053150*%
%ADD38O,0.132000X0.066000*%
%ADD39C,0.055118*%
%ADD40C,0.062992*%
%ADD41C,0.053150*%
%ADD42R,0.053150X0.053150*%
%ADD43R,0.047244X0.047244*%
%ADD44C,0.047244*%
%ADD45R,0.082677X0.082677*%
%ADD46C,0.082677*%
%ADD47R,0.059055X0.059055*%
%ADD48C,0.059055*%
%LNhigh_fre_amp-1*%
%LPD*%
G36*
X0371Y02245D02*
X0381083Y0214416D01*
X0380891Y0213955*
X033625*
X0316216Y0233988*
X0316437Y023481*
Y023611*
X03161Y0237366*
X031545Y0238492*
X0314531Y0239411*
X0313405Y0240061*
X0312807Y0240221*
Y0240738*
X0313405Y0240899*
X0314531Y0241549*
X031545Y0242468*
X03161Y0243594*
X0316437Y024485*
Y0245*
X03115*
Y0246*
X0316437*
Y024615*
X03161Y0247405*
X031545Y0248531*
X0314531Y024945*
X0313405Y02501*
X0313398Y0250102*
X0313464Y0250602*
X0316437*
Y0260476*
X0306562*
Y0250602*
X0309535*
X0309601Y0250102*
X0309594Y02501*
X0308468Y024945*
X0307549Y0248531*
X0307123Y0247794*
X02856*
X0284722Y0247619*
X0283977Y0247122*
X0256254Y0219398*
X0255757Y0218654*
X0255582Y0217776*
Y01365*
X0223394*
Y0218917*
X0223219Y0219795*
X0222722Y0220539*
X0221977Y0221036*
X02211Y0221211*
X0199993*
X0187216Y0233988*
X0187437Y023481*
Y023611*
X01871Y0237366*
X018645Y0238492*
X0185531Y0239411*
X0184405Y0240061*
X0183807Y0240221*
Y0240738*
X0184405Y0240899*
X0185531Y0241549*
X018645Y0242468*
X01871Y0243594*
X0187437Y024485*
Y0245*
X0177562*
Y024485*
X0177899Y0243594*
X0178549Y0242468*
X0179468Y0241549*
X0180594Y0240899*
X0181192Y0240738*
Y0240221*
X0180594Y0240061*
X0179468Y0239411*
X0178549Y0238492*
X0177899Y0237366*
X0177562Y023611*
Y023481*
X0177899Y0233555*
X0178549Y0232429*
X0179468Y023151*
X0180594Y023086*
X018185Y0230523*
X018315*
X0183972Y0230744*
X0197421Y0217294*
X0198165Y0216797*
X0199043Y0216623*
X0218805*
Y01365*
X0171*
Y0182755*
X017295Y0184705*
X0174413*
X0175006Y0183933*
X0175905Y0183244*
X0176951Y018281*
X0178073Y0182662*
X0184673*
X0185796Y018281*
X0186842Y0183244*
X0187505Y0183753*
X0188005Y0183506*
Y0180493*
X0187507Y0180244*
X0186842Y0180755*
X0185796Y0181189*
X0184673Y0181337*
X0178073*
X0176951Y0181189*
X0175905Y0180755*
X0175006Y0180066*
X0174317Y0179168*
X0173884Y0178122*
X0173736Y0177*
X0173884Y0175877*
X0174317Y0174831*
X0175006Y0173933*
X0175905Y0173244*
X0176951Y017281*
X0178073Y0172662*
X0184673*
X0185796Y017281*
X0186842Y0173244*
X018774Y0173933*
X0188393Y0174784*
X0188877Y017488*
X0189622Y0175377*
X0191922Y0177677*
X0192419Y0178422*
X0192594Y01793*
Y0200523*
X0192419Y0201401*
X0191922Y0202145*
X014Y0254067*
Y0271*
X01562Y02872*
X0371*
Y02245*
G37*
G36*
X03315Y0208D02*
X0388Y0206944D01*
Y0202294*
X03575*
X0356622Y0202119*
X0355877Y0201622*
X0314192Y0159936*
X0313695Y0159192*
X031352Y0158314*
Y0136*
X0305*
X02895Y01515*
Y0181602*
X0289961Y0181793*
X0296377Y0175377*
X0297122Y017488*
X0298Y0174705*
X0298971*
X0299564Y0173933*
X0300462Y0173244*
X0301508Y017281*
X030263Y0172662*
X030923*
X0310353Y017281*
X0311399Y0173244*
X0312297Y0173933*
X0312987Y0174831*
X031342Y0175877*
X0313567Y0177*
X031342Y0178122*
X0312987Y0179168*
X0312297Y0180066*
X0311399Y0180755*
X0310353Y0181189*
X030923Y0181337*
X030263*
X0301508Y0181189*
X0300462Y0180755*
X0299564Y0180066*
X0299268Y0179682*
X0298605Y0179638*
X02895Y0188744*
Y0243205*
X0296294*
X03315Y0208*
G37*
G36*
X0388Y0151D02*
X0373Y0136D01*
X0318108*
Y0157364*
X035845Y0197705*
X0388*
Y0151*
G37*
%LNhigh_fre_amp-2*%
%LPC*%
G36*
X0281635Y0272754D02*
Y02695D01*
X0284889*
X0284635Y0270449*
X028414Y0271306*
X0283441Y0272005*
X0282585Y02725*
X0281635Y0272754*
G37*
G36*
X0280635D02*
X0279685Y02725D01*
X0278829Y0272005*
X0278129Y0271306*
X0277635Y0270449*
X0277381Y02695*
X0280635*
Y0272754*
G37*
G36*
X0284889Y02685D02*
X0281635D01*
Y0265245*
X0282585Y02655*
X0283441Y0265994*
X028414Y0266693*
X0284635Y026755*
X0284889Y02685*
G37*
G36*
X0280635D02*
X0277381D01*
X0277635Y026755*
X0278129Y0266693*
X0278829Y0265994*
X0279685Y02655*
X0280635Y0265245*
Y02685*
G37*
G36*
X0159894Y0265179D02*
X0158905D01*
X015795Y0264923*
X0157093Y0264428*
X0156394Y0263729*
X01559Y0262872*
X0155644Y0261917*
Y0260928*
X01559Y0259973*
X0156394Y0259116*
X0157093Y0258417*
X015795Y0257923*
X0158905Y0257667*
X0159894*
X0159907Y025767*
X0163661Y0253917*
X0164405Y025342*
X0165283Y0253245*
X0177562*
Y0250602*
X0180535*
X0180601Y0250102*
X0180594Y02501*
X0179468Y024945*
X0178549Y0248531*
X0177899Y0247405*
X0177562Y024615*
Y0246*
X0187437*
Y024615*
X01871Y0247405*
X018645Y0248531*
X0185531Y024945*
X0184405Y02501*
X0184398Y0250102*
X0184464Y0250602*
X0187437*
Y0260476*
X0177562*
Y0257833*
X0166233*
X0163152Y0260915*
X0163155Y0260928*
Y0261917*
X01629Y0262872*
X0162405Y0263729*
X0161706Y0264428*
X0160849Y0264923*
X0159894Y0265179*
G37*
G36*
X0250855Y0180657D02*
X0249892D01*
X0248961Y0180408*
X0248127Y0179926*
X0247446Y0179245*
X0246965Y0178411*
X0246716Y0177481*
Y0176518*
X0246965Y0175588*
X0247446Y0174754*
X0248127Y0174073*
X0248961Y0173591*
X0249892Y0173342*
X0250855*
X0251785Y0173591*
X0252619Y0174073*
X02533Y0174754*
X0253781Y0175588*
X0254031Y0176518*
Y0177481*
X0253781Y0178411*
X02533Y0179245*
X0252619Y0179926*
X0251785Y0180408*
X0250855Y0180657*
G37*
G36*
X0184673Y0171337D02*
X0178073D01*
X0176951Y0171189*
X0175905Y0170755*
X0175006Y0170066*
X0174317Y0169168*
X0173884Y0168122*
X0173736Y0167*
X0173884Y0165877*
X0174317Y0164831*
X0175006Y0163933*
X0175905Y0163244*
X0176951Y016281*
X0178073Y0162662*
X0184673*
X0185796Y016281*
X0186842Y0163244*
X018774Y0163933*
X0188429Y0164831*
X0188862Y0165877*
X018901Y0167*
X0188862Y0168122*
X0188429Y0169168*
X018774Y0170066*
X0186842Y0170755*
X0185796Y0171189*
X0184673Y0171337*
G37*
G36*
X030923Y0191337D02*
X030263D01*
X0301508Y0191189*
X0300462Y0190755*
X0299564Y0190066*
X0298874Y0189168*
X0298441Y0188122*
X0298293Y0187*
X0298441Y0185877*
X0298874Y0184831*
X0299564Y0183933*
X0300462Y0183244*
X0301508Y018281*
X030263Y0182662*
X030923*
X0310353Y018281*
X0311399Y0183244*
X0312297Y0183933*
X0312987Y0184831*
X031342Y0185877*
X0313567Y0187*
X031342Y0188122*
X0312987Y0189168*
X0312297Y0190066*
X0311399Y0190755*
X0310353Y0191189*
X030923Y0191337*
G37*
G36*
Y0171337D02*
X030263D01*
X0301508Y0171189*
X0300462Y0170755*
X0299564Y0170066*
X0298874Y0169168*
X0298441Y0168122*
X0298293Y0167*
X0298441Y0165877*
X0298874Y0164831*
X0299564Y0163933*
X0300462Y0163244*
X0301508Y016281*
X030263Y0162662*
X030923*
X0310353Y016281*
X0311399Y0163244*
X0312297Y0163933*
X0312987Y0164831*
X031342Y0165877*
X0313567Y0167*
X031342Y0168122*
X0312987Y0169168*
X0312297Y0170066*
X0311399Y0170755*
X0310353Y0171189*
X030923Y0171337*
G37*
G36*
X0375412Y0180657D02*
X0374449D01*
X0373518Y0180408*
X0372685Y0179926*
X0372003Y0179245*
X0371522Y0178411*
X0371273Y0177481*
Y0176518*
X0371522Y0175588*
X0372003Y0174754*
X0372685Y0174073*
X0373518Y0173591*
X0374449Y0173342*
X0375412*
X0376342Y0173591*
X0377176Y0174073*
X0377857Y0174754*
X0378338Y0175588*
X0378588Y0176518*
Y0177481*
X0378338Y0178411*
X0377857Y0179245*
X0377176Y0179926*
X0376342Y0180408*
X0375412Y0180657*
G37*
%LNhigh_fre_amp-3*%
%LPD*%
G54D18*
X00975Y02165D03*
X00925Y02115D03*
G54D19*
X01025Y02115D03*
G54D22*
X03115Y023546D03*
Y02455D03*
X01825Y023546D03*
Y02455D03*
G54D23*
X03115Y0255539D03*
X01825D03*
G54D34*
X00975Y02165D02*
Y0216837D01*
X006937Y0244966D02*
X00975Y0216837D01*
X0102098Y0210486D02*
X0102974Y0211362D01*
X0172Y0187D02*
X0181373D01*
X01825Y023546D02*
X0199043Y0218917D01*
X02211*
X01594Y0261423D02*
X0165283Y0255539D01*
X01825*
X01294Y0261423D02*
X01903Y0200523D01*
Y01793D02*
Y0200523D01*
X0181373Y0177D02*
X0188D01*
X01903Y01793*
X0335299Y0211661D02*
X0407388D01*
X03115Y023546D02*
X0335299Y0211661D01*
X0257876Y0217776D02*
X02856Y02455D01*
X03115*
X0073542Y0058359D02*
X0082Y0066817D01*
Y0079417*
X0052Y0071462D02*
Y0077921D01*
X0053857Y0058359D02*
Y0069605D01*
X0052Y0071462D02*
X0053857Y0069605D01*
X0257876Y0114173D02*
Y0217776D01*
X0084385Y0159643D02*
Y0192772D01*
X0102098Y0210486D02*
D01*
X0084385Y0192772D02*
X0102098Y0210486D01*
X0298Y0177D02*
X030593D01*
X0281135Y0193864D02*
X0298Y0177D01*
X0281135Y0193864D02*
Y0209405D01*
X0345814Y0099149D02*
Y0114173D01*
X030404Y0057375D02*
X0345814Y0099149D01*
X0281135Y0113135D02*
Y0159405D01*
X02693Y01013D02*
X0281135Y0113135D01*
X0252Y01013D02*
X02693D01*
X02211Y01322D02*
X0252Y01013D01*
X02211Y01322D02*
Y0218917D01*
X0097974Y0216362D02*
X0117D01*
X01243Y0209062*
Y01546D02*
Y0209062D01*
Y01546D02*
X0164726Y0114173D01*
X0169938*
X03575Y02D02*
X0407388D01*
X0315814Y0158314D02*
X03575Y02D01*
X0315814Y0114173D02*
Y0158314D01*
X01594Y01744D02*
X0172Y0187D01*
X01594Y0159643D02*
Y01744D01*
X006937Y0244966D02*
Y0261423D01*
X0431388Y02058D02*
Y0226818D01*
X0407388Y01818D02*
X0431388Y02058D01*
X0407388Y015D02*
Y01818D01*
X0431388Y0165157D02*
X04363Y0170069D01*
Y0241591*
X0431388Y0246503D02*
X04363Y0241591D01*
G54D35*
X0082Y0079417D02*
Y0114173D01*
X0052Y0077921D02*
Y0114173D01*
Y0197903*
X003937Y0210533D02*
X0052Y0197903D01*
X0082Y0114173D02*
Y0127258D01*
X0114385Y0159643*
X003937Y0210533D02*
Y0261423D01*
G54D36*
X00345Y02791D03*
X04506Y00369D03*
X00345D03*
X04506Y02791D03*
G54D37*
X0250373Y0177D03*
X037493D03*
G54D38*
X0181373Y0167D03*
Y0177D03*
Y0187D03*
X030593D03*
Y0177D03*
Y0167D03*
G54D39*
X0281135Y0209405D03*
Y0159405D03*
X003937Y0159643D03*
X006937D03*
X0084385D03*
X0114385D03*
X01594D03*
X01294D03*
X04065Y0097025D03*
X04365D03*
X0407388Y0261661D03*
Y0211661D03*
Y015D03*
Y02D03*
X0281135Y0219D03*
Y0269D03*
X003937Y0210533D03*
X006937D03*
X0084385Y0261423D03*
X0114385D03*
X003937D03*
X006937D03*
X01294D03*
X01594D03*
G54D40*
X0412043Y01224D03*
Y01124D03*
G54D41*
X0431388Y0246503D03*
Y0165157D03*
X01444Y0198957D03*
G54D42*
X0431388Y0226818D03*
Y0184842D03*
X01444Y0218642D03*
G54D43*
X0139938Y0114173D03*
X0227876D03*
X0315814D03*
X0052D03*
G54D44*
X0169938Y0114173D03*
X0257876D03*
X0345814D03*
X0082D03*
G54D45*
X0073542Y0058359D03*
X0200983D03*
G54D46*
X0053857Y0058359D03*
X0181298D03*
G54D47*
X031404Y0057375D03*
G54D48*
X030404Y0057375D03*
M02*